<mxfile host="app.diagrams.net" modified="2023-10-26T14:34:19.359Z" agent="Mozilla/5.0 (Windows NT 10.0; Win64; x64) AppleWebKit/537.36 (KHTML, like Gecko) Chrome/118.0.0.0 Safari/537.36" etag="hB_LmeX_3af9CYm4x6Qv" version="22.0.8" type="github">
  <diagram id="-fB192dCxYrc6BMrNV2s" name="Страница 1">
    <mxGraphModel dx="14094" dy="6140" grid="1" gridSize="10" guides="1" tooltips="1" connect="1" arrows="1" fold="1" page="1" pageScale="1" pageWidth="827" pageHeight="1169" math="0" shadow="0">
      <root>
        <mxCell id="0" />
        <mxCell id="1" parent="0" />
        <mxCell id="wV7pngzf2u6qVaiz4FVF-6" value="" style="rounded=1;whiteSpace=wrap;html=1;strokeWidth=3;" parent="1" vertex="1">
          <mxGeometry x="-755" y="-2870" width="3990" height="2130" as="geometry" />
        </mxCell>
        <mxCell id="wV7pngzf2u6qVaiz4FVF-12" style="edgeStyle=orthogonalEdgeStyle;rounded=0;orthogonalLoop=1;jettySize=auto;html=1;entryX=0.5;entryY=0;entryDx=0;entryDy=0;strokeWidth=3;startSize=10;" parent="1" source="wV7pngzf2u6qVaiz4FVF-7" target="wV7pngzf2u6qVaiz4FVF-9" edge="1">
          <mxGeometry relative="1" as="geometry">
            <mxPoint x="380" y="-1830" as="targetPoint" />
          </mxGeometry>
        </mxCell>
        <mxCell id="wV7pngzf2u6qVaiz4FVF-7" value="" style="rounded=0;whiteSpace=wrap;html=1;dashed=1;dashPattern=12 12;strokeWidth=3;" parent="1" vertex="1">
          <mxGeometry x="1140" y="-2730" width="1970" height="1800" as="geometry" />
        </mxCell>
        <mxCell id="wV7pngzf2u6qVaiz4FVF-1" value="" style="rounded=1;whiteSpace=wrap;html=1;strokeWidth=3;" parent="1" vertex="1">
          <mxGeometry x="-9580" y="-1033" width="4510" height="3095.04" as="geometry" />
        </mxCell>
        <mxCell id="avfBRFNsj0o9U9Dhmwhw-1" value="" style="rounded=1;whiteSpace=wrap;html=1;strokeWidth=3;" parent="1" vertex="1">
          <mxGeometry x="-8280" y="2860" width="2090" height="1730" as="geometry" />
        </mxCell>
        <mxCell id="4gGjTpzzvBJ2QWFjTk4x-29" value="presentation" style="text;strokeColor=none;fillColor=none;html=1;fontSize=48;fontStyle=1;verticalAlign=middle;align=center;strokeWidth=3;container=0;" parent="1" vertex="1">
          <mxGeometry x="-4870" y="2950" width="170" height="40" as="geometry" />
        </mxCell>
        <mxCell id="4gGjTpzzvBJ2QWFjTk4x-31" value="" style="swimlane;startSize=0;container=0;strokeWidth=3;" parent="1" vertex="1">
          <mxGeometry x="-357" y="2890" width="200" height="274.0740740740741" as="geometry" />
        </mxCell>
        <mxCell id="4gGjTpzzvBJ2QWFjTk4x-44" value="" style="swimlane;startSize=0;container=0;strokeWidth=3;" parent="1" vertex="1">
          <mxGeometry x="-357" y="3244.93" width="647" height="274.07" as="geometry" />
        </mxCell>
        <mxCell id="4gGjTpzzvBJ2QWFjTk4x-94" value="Calendar&lt;br style=&quot;border-color: var(--border-color); font-size: 35px;&quot;&gt;Fragment" style="text;strokeColor=none;fillColor=none;html=1;fontSize=35;fontStyle=1;verticalAlign=middle;align=center;strokeWidth=3;container=0;" parent="4gGjTpzzvBJ2QWFjTk4x-44" vertex="1">
          <mxGeometry x="273.5" y="112.0300000000002" width="100" height="40" as="geometry" />
        </mxCell>
        <mxCell id="4gGjTpzzvBJ2QWFjTk4x-100" value="" style="swimlane;startSize=0;container=0;strokeWidth=3;fillStyle=zigzag-line;" parent="1" vertex="1">
          <mxGeometry x="-2050" y="2880" width="240" height="274.07" as="geometry" />
        </mxCell>
        <mxCell id="4gGjTpzzvBJ2QWFjTk4x-103" value="" style="swimlane;startSize=0;container=0;strokeWidth=3;" parent="1" vertex="1">
          <mxGeometry x="-2031" y="3234.93" width="1001" height="274.07" as="geometry" />
        </mxCell>
        <mxCell id="4gGjTpzzvBJ2QWFjTk4x-104" value="Appointment&lt;br style=&quot;border-color: var(--border-color); font-size: 35px;&quot;&gt;Fragment" style="text;strokeColor=none;fillColor=none;html=1;fontSize=35;fontStyle=1;verticalAlign=middle;align=center;strokeWidth=3;container=0;" parent="4gGjTpzzvBJ2QWFjTk4x-103" vertex="1">
          <mxGeometry x="441" y="122.0300000000002" width="100" height="40" as="geometry" />
        </mxCell>
        <mxCell id="4gGjTpzzvBJ2QWFjTk4x-105" value="" style="swimlane;startSize=0;container=0;strokeWidth=3;" parent="1" vertex="1">
          <mxGeometry x="3460" y="2850" width="200" height="274.0740740740741" as="geometry" />
        </mxCell>
        <mxCell id="4gGjTpzzvBJ2QWFjTk4x-108" value="" style="swimlane;startSize=0;container=0;strokeWidth=3;" parent="1" vertex="1">
          <mxGeometry x="3460" y="3204.925925925926" width="200" height="274.0740740740741" as="geometry" />
        </mxCell>
        <mxCell id="4gGjTpzzvBJ2QWFjTk4x-109" value="Date&lt;br style=&quot;border-color: var(--border-color); font-size: 35px;&quot;&gt;Fragment" style="text;strokeColor=none;fillColor=none;html=1;fontSize=35;fontStyle=1;verticalAlign=middle;align=center;strokeWidth=3;container=0;" parent="1" vertex="1">
          <mxGeometry x="3510" y="3321.96" width="100" height="40" as="geometry" />
        </mxCell>
        <mxCell id="4gGjTpzzvBJ2QWFjTk4x-110" value="" style="swimlane;startSize=0;container=0;fontSize=35;strokeWidth=3;" parent="1" vertex="1">
          <mxGeometry x="5720" y="2829.9900000000002" width="260" height="274.07" as="geometry" />
        </mxCell>
        <mxCell id="4gGjTpzzvBJ2QWFjTk4x-111" value="Procedures&lt;br style=&quot;font-size: 35px;&quot;&gt;ViewModel" style="text;strokeColor=none;fillColor=none;html=1;fontSize=35;fontStyle=1;verticalAlign=middle;align=center;strokeWidth=3;container=0;" parent="4gGjTpzzvBJ2QWFjTk4x-110" vertex="1">
          <mxGeometry x="84" y="117.02999999999975" width="100" height="40" as="geometry" />
        </mxCell>
        <mxCell id="4gGjTpzzvBJ2QWFjTk4x-113" value="" style="swimlane;startSize=0;container=0;strokeWidth=3;" parent="1" vertex="1">
          <mxGeometry x="5720" y="3184.92" width="260" height="274.07" as="geometry" />
        </mxCell>
        <mxCell id="4gGjTpzzvBJ2QWFjTk4x-114" value="Procedures&lt;br style=&quot;border-color: var(--border-color); font-size: 35px;&quot;&gt;Fragment" style="text;strokeColor=none;fillColor=none;html=1;fontSize=35;fontStyle=1;verticalAlign=middle;align=center;strokeWidth=3;container=0;" parent="4gGjTpzzvBJ2QWFjTk4x-113" vertex="1">
          <mxGeometry x="80" y="117.0300000000002" width="100" height="40" as="geometry" />
        </mxCell>
        <mxCell id="4gGjTpzzvBJ2QWFjTk4x-115" value="" style="swimlane;startSize=0;container=0;strokeWidth=3;" parent="1" vertex="1">
          <mxGeometry x="9540" y="2694" width="200" height="274.0740740740741" as="geometry" />
        </mxCell>
        <mxCell id="4gGjTpzzvBJ2QWFjTk4x-118" value="" style="swimlane;startSize=0;container=0;strokeWidth=3;" parent="1" vertex="1">
          <mxGeometry x="9540" y="3048.925925925926" width="200" height="274.0740740740741" as="geometry" />
        </mxCell>
        <mxCell id="4gGjTpzzvBJ2QWFjTk4x-119" value="Search&lt;br style=&quot;border-color: var(--border-color); font-size: 35px;&quot;&gt;Fragment" style="text;strokeColor=none;fillColor=none;html=1;fontSize=35;fontStyle=1;verticalAlign=middle;align=center;strokeWidth=3;container=0;" parent="1" vertex="1">
          <mxGeometry x="9590" y="3165.96" width="100" height="40" as="geometry" />
        </mxCell>
        <mxCell id="4gGjTpzzvBJ2QWFjTk4x-120" value="" style="swimlane;startSize=0;container=0;strokeWidth=3;" parent="1" vertex="1">
          <mxGeometry x="9830" y="2694" width="205" height="274.07" as="geometry" />
        </mxCell>
        <mxCell id="4gGjTpzzvBJ2QWFjTk4x-123" value="" style="swimlane;startSize=0;container=0;strokeWidth=3;" parent="1" vertex="1">
          <mxGeometry x="9830" y="3048.93" width="205" height="274.07" as="geometry" />
        </mxCell>
        <mxCell id="4gGjTpzzvBJ2QWFjTk4x-124" value="Settings&lt;br style=&quot;border-color: var(--border-color); font-size: 35px;&quot;&gt;Fragment" style="text;strokeColor=none;fillColor=none;html=1;fontSize=35;fontStyle=1;verticalAlign=middle;align=center;strokeWidth=3;container=0;" parent="1" vertex="1">
          <mxGeometry x="9880" y="3165.96" width="100" height="40" as="geometry" />
        </mxCell>
        <mxCell id="4gGjTpzzvBJ2QWFjTk4x-142" style="edgeStyle=orthogonalEdgeStyle;rounded=0;orthogonalLoop=1;jettySize=auto;html=1;entryX=1;entryY=0.5;entryDx=0;entryDy=0;fontSize=48;strokeWidth=3;endSize=10;" parent="1" source="4gGjTpzzvBJ2QWFjTk4x-140" target="4gGjTpzzvBJ2QWFjTk4x-137" edge="1">
          <mxGeometry relative="1" as="geometry" />
        </mxCell>
        <mxCell id="4gGjTpzzvBJ2QWFjTk4x-140" value="" style="swimlane;startSize=0;container=0;strokeWidth=3;" parent="1" vertex="1">
          <mxGeometry x="1429" y="4115" width="261" height="274.07" as="geometry" />
        </mxCell>
        <mxCell id="4gGjTpzzvBJ2QWFjTk4x-141" value="Main Activity&lt;br style=&quot;font-size: 35px;&quot;&gt;ViewModel" style="text;strokeColor=none;fillColor=none;html=1;fontSize=35;fontStyle=1;verticalAlign=middle;align=center;strokeWidth=3;container=0;" parent="4gGjTpzzvBJ2QWFjTk4x-140" vertex="1">
          <mxGeometry x="80.5" y="117.02999999999975" width="100" height="40" as="geometry" />
        </mxCell>
        <mxCell id="4gGjTpzzvBJ2QWFjTk4x-170" style="edgeStyle=orthogonalEdgeStyle;rounded=0;orthogonalLoop=1;jettySize=auto;html=1;entryX=0.5;entryY=1;entryDx=0;entryDy=0;fontSize=48;endSize=10;strokeWidth=3;" parent="1" source="4gGjTpzzvBJ2QWFjTk4x-163" target="4gGjTpzzvBJ2QWFjTk4x-98" edge="1">
          <mxGeometry relative="1" as="geometry" />
        </mxCell>
        <mxCell id="4gGjTpzzvBJ2QWFjTk4x-171" style="edgeStyle=orthogonalEdgeStyle;rounded=0;orthogonalLoop=1;jettySize=auto;html=1;entryX=0.5;entryY=1;entryDx=0;entryDy=0;fontSize=48;strokeWidth=3;endSize=10;" parent="1" source="4gGjTpzzvBJ2QWFjTk4x-163" target="4gGjTpzzvBJ2QWFjTk4x-103" edge="1">
          <mxGeometry relative="1" as="geometry" />
        </mxCell>
        <mxCell id="4gGjTpzzvBJ2QWFjTk4x-172" style="edgeStyle=orthogonalEdgeStyle;rounded=0;orthogonalLoop=1;jettySize=auto;html=1;entryX=0.5;entryY=1;entryDx=0;entryDy=0;fontSize=48;strokeWidth=3;endSize=10;exitX=0;exitY=0.5;exitDx=0;exitDy=0;" parent="1" source="4gGjTpzzvBJ2QWFjTk4x-163" target="4gGjTpzzvBJ2QWFjTk4x-44" edge="1">
          <mxGeometry relative="1" as="geometry" />
        </mxCell>
        <mxCell id="avfBRFNsj0o9U9Dhmwhw-19" style="edgeStyle=orthogonalEdgeStyle;rounded=0;orthogonalLoop=1;jettySize=auto;html=1;entryX=0.5;entryY=0;entryDx=0;entryDy=0;strokeWidth=3;endSize=10;" parent="1" source="4gGjTpzzvBJ2QWFjTk4x-95" target="4gGjTpzzvBJ2QWFjTk4x-98" edge="1">
          <mxGeometry relative="1" as="geometry">
            <Array as="points">
              <mxPoint x="-2649" y="3233" />
            </Array>
          </mxGeometry>
        </mxCell>
        <mxCell id="4gGjTpzzvBJ2QWFjTk4x-95" value="" style="swimlane;startSize=0;container=0;strokeWidth=3;" parent="1" vertex="1">
          <mxGeometry x="-2750" y="2878" width="200" height="274.0740740740741" as="geometry" />
        </mxCell>
        <mxCell id="4gGjTpzzvBJ2QWFjTk4x-98" value="" style="swimlane;startSize=0;container=0;strokeWidth=3;" parent="1" vertex="1">
          <mxGeometry x="-2750" y="3232.925925925926" width="200" height="274.0740740740741" as="geometry" />
        </mxCell>
        <mxCell id="4gGjTpzzvBJ2QWFjTk4x-99" value="About&lt;br style=&quot;border-color: var(--border-color); font-size: 35px;&quot;&gt;Fragment" style="text;strokeColor=none;fillColor=none;html=1;fontSize=35;fontStyle=1;verticalAlign=middle;align=center;strokeWidth=3;container=0;" parent="1" vertex="1">
          <mxGeometry x="-2700" y="3349.96" width="100" height="40" as="geometry" />
        </mxCell>
        <mxCell id="4gGjTpzzvBJ2QWFjTk4x-93" value="Calendar&lt;br style=&quot;font-size: 35px;&quot;&gt;ViewModel" style="text;strokeColor=none;fillColor=none;html=1;fontSize=35;fontStyle=1;verticalAlign=middle;align=center;strokeWidth=3;container=0;" parent="1" vertex="1">
          <mxGeometry x="-307" y="3007.04" width="100" height="40" as="geometry" />
        </mxCell>
        <mxCell id="4gGjTpzzvBJ2QWFjTk4x-101" value="Appointment&lt;br style=&quot;font-size: 35px;&quot;&gt;ViewModel" style="text;strokeColor=none;fillColor=none;html=1;fontSize=35;fontStyle=1;verticalAlign=middle;align=center;strokeWidth=3;container=0;" parent="1" vertex="1">
          <mxGeometry x="-1981" y="2997.04" width="100" height="40" as="geometry" />
        </mxCell>
        <mxCell id="4gGjTpzzvBJ2QWFjTk4x-106" value="Date&lt;br style=&quot;font-size: 35px;&quot;&gt;ViewModel" style="text;strokeColor=none;fillColor=none;html=1;fontSize=35;fontStyle=1;verticalAlign=middle;align=center;strokeWidth=3;container=0;" parent="1" vertex="1">
          <mxGeometry x="3510" y="2967.04" width="100" height="40" as="geometry" />
        </mxCell>
        <mxCell id="4gGjTpzzvBJ2QWFjTk4x-116" value="Search&lt;br style=&quot;font-size: 35px;&quot;&gt;ViewModel" style="text;strokeColor=none;fillColor=none;html=1;fontSize=35;fontStyle=1;verticalAlign=middle;align=center;strokeWidth=3;container=0;" parent="1" vertex="1">
          <mxGeometry x="9590" y="2811.04" width="100" height="40" as="geometry" />
        </mxCell>
        <mxCell id="4gGjTpzzvBJ2QWFjTk4x-121" value="Settings&lt;br style=&quot;font-size: 35px;&quot;&gt;ViewModel" style="text;strokeColor=none;fillColor=none;html=1;fontSize=35;fontStyle=1;verticalAlign=middle;align=center;strokeWidth=3;container=0;" parent="1" vertex="1">
          <mxGeometry x="9880" y="2811.04" width="100" height="42.96" as="geometry" />
        </mxCell>
        <mxCell id="4gGjTpzzvBJ2QWFjTk4x-137" value="" style="swimlane;startSize=0;container=0;strokeWidth=3;" parent="1" vertex="1">
          <mxGeometry x="1089" y="4115" width="200" height="274.0740740740741" as="geometry" />
        </mxCell>
        <mxCell id="4gGjTpzzvBJ2QWFjTk4x-165" style="edgeStyle=orthogonalEdgeStyle;rounded=0;orthogonalLoop=1;jettySize=auto;html=1;fontSize=48;strokeWidth=3;endSize=10;" parent="1" source="4gGjTpzzvBJ2QWFjTk4x-137" target="4gGjTpzzvBJ2QWFjTk4x-163" edge="1">
          <mxGeometry relative="1" as="geometry">
            <mxPoint x="1129" y="3975" as="targetPoint" />
          </mxGeometry>
        </mxCell>
        <mxCell id="4gGjTpzzvBJ2QWFjTk4x-138" value="Main&lt;br style=&quot;font-size: 35px;&quot;&gt;Activity" style="text;strokeColor=none;fillColor=none;html=1;fontSize=35;fontStyle=1;verticalAlign=middle;align=center;strokeWidth=3;container=0;" parent="1" vertex="1">
          <mxGeometry x="1139" y="4232.04" width="100" height="40" as="geometry" />
        </mxCell>
        <mxCell id="4gGjTpzzvBJ2QWFjTk4x-282" style="edgeStyle=orthogonalEdgeStyle;rounded=0;jumpSize=11;orthogonalLoop=1;jettySize=auto;html=1;entryX=0.5;entryY=1;entryDx=0;entryDy=0;strokeWidth=3;fontSize=28;fontColor=#000000000;exitX=1;exitY=0.5;exitDx=0;exitDy=0;" parent="1" source="4gGjTpzzvBJ2QWFjTk4x-163" target="4gGjTpzzvBJ2QWFjTk4x-108" edge="1">
          <mxGeometry relative="1" as="geometry" />
        </mxCell>
        <mxCell id="4gGjTpzzvBJ2QWFjTk4x-163" value="" style="ellipse;whiteSpace=wrap;html=1;aspect=fixed;strokeWidth=3;fontSize=48;container=0;" parent="1" vertex="1">
          <mxGeometry x="1069" y="3550" width="240" height="240" as="geometry" />
        </mxCell>
        <mxCell id="4gGjTpzzvBJ2QWFjTk4x-166" value="Fragment&lt;br style=&quot;font-size: 35px;&quot;&gt;Holder" style="text;strokeColor=none;fillColor=none;html=1;fontSize=35;fontStyle=1;verticalAlign=middle;align=center;strokeWidth=3;container=0;" parent="1" vertex="1">
          <mxGeometry x="1139" y="3650" width="100" height="40" as="geometry" />
        </mxCell>
        <mxCell id="4gGjTpzzvBJ2QWFjTk4x-96" value="About&lt;br style=&quot;font-size: 35px;&quot;&gt;ViewModel" style="text;strokeColor=none;fillColor=none;html=1;fontSize=35;fontStyle=1;verticalAlign=middle;align=center;strokeWidth=3;container=0;" parent="1" vertex="1">
          <mxGeometry x="-2700" y="2995.04" width="100" height="40" as="geometry" />
        </mxCell>
        <mxCell id="4gGjTpzzvBJ2QWFjTk4x-283" value="" style="swimlane;startSize=0;container=0;strokeWidth=3;" parent="1" vertex="1">
          <mxGeometry x="1087" y="2850" width="200" height="274.0740740740741" as="geometry" />
        </mxCell>
        <mxCell id="4gGjTpzzvBJ2QWFjTk4x-284" value="" style="swimlane;startSize=0;container=0;strokeWidth=3;" parent="1" vertex="1">
          <mxGeometry x="1087" y="3204.93" width="713" height="274.07" as="geometry" />
        </mxCell>
        <mxCell id="4gGjTpzzvBJ2QWFjTk4x-285" value="Clients&lt;br style=&quot;border-color: var(--border-color); font-size: 35px;&quot;&gt;Fragment" style="text;strokeColor=none;fillColor=none;html=1;fontSize=35;fontStyle=1;verticalAlign=middle;align=center;strokeWidth=3;container=0;" parent="4gGjTpzzvBJ2QWFjTk4x-284" vertex="1">
          <mxGeometry x="322.5" y="112.0300000000002" width="100" height="40" as="geometry" />
        </mxCell>
        <mxCell id="4gGjTpzzvBJ2QWFjTk4x-286" value="Clients&lt;br style=&quot;font-size: 35px;&quot;&gt;ViewModel" style="text;strokeColor=none;fillColor=none;html=1;fontSize=35;fontStyle=1;verticalAlign=middle;align=center;strokeWidth=3;container=0;" parent="1" vertex="1">
          <mxGeometry x="1137" y="2967.04" width="100" height="40" as="geometry" />
        </mxCell>
        <mxCell id="avfBRFNsj0o9U9Dhmwhw-11" value="data&lt;br&gt;" style="text;strokeColor=none;fillColor=none;html=1;fontSize=48;fontStyle=1;verticalAlign=middle;align=center;strokeWidth=3;" parent="1" vertex="1">
          <mxGeometry x="-498" y="-2670" width="170" height="40" as="geometry" />
        </mxCell>
        <mxCell id="4gGjTpzzvBJ2QWFjTk4x-231" value="domain" style="text;strokeColor=none;fillColor=none;html=1;fontSize=48;fontStyle=1;verticalAlign=middle;align=center;strokeWidth=3;" parent="1" vertex="1">
          <mxGeometry x="-4230" y="-2140" width="170" height="40" as="geometry" />
        </mxCell>
        <mxCell id="avfBRFNsj0o9U9Dhmwhw-23" style="edgeStyle=orthogonalEdgeStyle;rounded=0;orthogonalLoop=1;jettySize=auto;html=1;entryX=0.5;entryY=0;entryDx=0;entryDy=0;strokeWidth=3;endSize=10;exitX=0.5;exitY=1;exitDx=0;exitDy=0;" parent="1" source="4gGjTpzzvBJ2QWFjTk4x-100" target="4gGjTpzzvBJ2QWFjTk4x-103" edge="1">
          <mxGeometry relative="1" as="geometry">
            <mxPoint x="-2167" y="3164.074074074074" as="sourcePoint" />
            <mxPoint x="-2167" y="3244.925925925926" as="targetPoint" />
          </mxGeometry>
        </mxCell>
        <mxCell id="avfBRFNsj0o9U9Dhmwhw-24" style="edgeStyle=orthogonalEdgeStyle;rounded=0;orthogonalLoop=1;jettySize=auto;html=1;entryX=0.5;entryY=0;entryDx=0;entryDy=0;strokeWidth=3;endSize=10;exitX=0.5;exitY=1;exitDx=0;exitDy=0;" parent="1" source="4gGjTpzzvBJ2QWFjTk4x-31" target="4gGjTpzzvBJ2QWFjTk4x-44" edge="1">
          <mxGeometry relative="1" as="geometry">
            <mxPoint x="-567" y="3173.074074074074" as="sourcePoint" />
            <mxPoint x="-567" y="3253.925925925926" as="targetPoint" />
          </mxGeometry>
        </mxCell>
        <mxCell id="avfBRFNsj0o9U9Dhmwhw-25" style="edgeStyle=orthogonalEdgeStyle;rounded=0;orthogonalLoop=1;jettySize=auto;html=1;entryX=0.5;entryY=0;entryDx=0;entryDy=0;strokeWidth=3;endSize=10;exitX=0.5;exitY=1;exitDx=0;exitDy=0;" parent="1" source="4gGjTpzzvBJ2QWFjTk4x-283" target="4gGjTpzzvBJ2QWFjTk4x-284" edge="1">
          <mxGeometry relative="1" as="geometry">
            <mxPoint x="610" y="3145.074074074074" as="sourcePoint" />
            <mxPoint x="610" y="3225.925925925926" as="targetPoint" />
          </mxGeometry>
        </mxCell>
        <mxCell id="avfBRFNsj0o9U9Dhmwhw-26" style="edgeStyle=orthogonalEdgeStyle;rounded=0;orthogonalLoop=1;jettySize=auto;html=1;entryX=0.5;entryY=0;entryDx=0;entryDy=0;strokeWidth=3;endSize=10;exitX=0.5;exitY=1;exitDx=0;exitDy=0;jumpSize=11;" parent="1" source="4gGjTpzzvBJ2QWFjTk4x-105" target="4gGjTpzzvBJ2QWFjTk4x-108" edge="1">
          <mxGeometry relative="1" as="geometry">
            <mxPoint x="2694" y="3155.074074074074" as="sourcePoint" />
            <mxPoint x="2694" y="3235.925925925926" as="targetPoint" />
          </mxGeometry>
        </mxCell>
        <mxCell id="avfBRFNsj0o9U9Dhmwhw-27" style="edgeStyle=orthogonalEdgeStyle;rounded=0;orthogonalLoop=1;jettySize=auto;html=1;entryX=0.5;entryY=0;entryDx=0;entryDy=0;strokeWidth=3;endSize=10;exitX=0.5;exitY=1;exitDx=0;exitDy=0;" parent="1" source="4gGjTpzzvBJ2QWFjTk4x-110" target="4gGjTpzzvBJ2QWFjTk4x-113" edge="1">
          <mxGeometry relative="1" as="geometry">
            <mxPoint x="4634" y="3144.064074074074" as="sourcePoint" />
            <mxPoint x="4634" y="3224.9159259259263" as="targetPoint" />
            <Array as="points">
              <mxPoint x="5850" y="3104.09" />
              <mxPoint x="5850" y="3185.09" />
            </Array>
          </mxGeometry>
        </mxCell>
        <mxCell id="avfBRFNsj0o9U9Dhmwhw-29" value="models" style="text;strokeColor=none;fillColor=none;html=1;fontSize=48;fontStyle=1;verticalAlign=middle;align=center;strokeWidth=3;" parent="1" vertex="1">
          <mxGeometry x="-1704" y="-2100" width="170" height="40" as="geometry" />
        </mxCell>
        <mxCell id="avfBRFNsj0o9U9Dhmwhw-33" value="" style="group;strokeWidth=3;" parent="1" vertex="1" connectable="0">
          <mxGeometry x="-1894" y="-1980" width="469" height="265" as="geometry" />
        </mxCell>
        <mxCell id="avfBRFNsj0o9U9Dhmwhw-34" value="" style="group;strokeWidth=3;" parent="avfBRFNsj0o9U9Dhmwhw-33" vertex="1" connectable="0">
          <mxGeometry width="469" height="265" as="geometry" />
        </mxCell>
        <mxCell id="avfBRFNsj0o9U9Dhmwhw-35" value="" style="group;strokeWidth=3;" parent="avfBRFNsj0o9U9Dhmwhw-34" vertex="1" connectable="0">
          <mxGeometry width="469" height="265" as="geometry" />
        </mxCell>
        <mxCell id="avfBRFNsj0o9U9Dhmwhw-30" value="" style="ellipse;whiteSpace=wrap;html=1;strokeWidth=3;" parent="avfBRFNsj0o9U9Dhmwhw-35" vertex="1">
          <mxGeometry width="469" height="265" as="geometry" />
        </mxCell>
        <mxCell id="avfBRFNsj0o9U9Dhmwhw-31" value="Appointment&lt;br&gt;Params" style="text;strokeColor=none;fillColor=none;html=1;fontSize=35;fontStyle=1;verticalAlign=middle;align=center;strokeWidth=3;fontColor=#000000000;" parent="avfBRFNsj0o9U9Dhmwhw-35" vertex="1">
          <mxGeometry x="184.5" y="112.5" width="100" height="40" as="geometry" />
        </mxCell>
        <mxCell id="avfBRFNsj0o9U9Dhmwhw-55" value="" style="ellipse;whiteSpace=wrap;html=1;strokeWidth=3;" parent="1" vertex="1">
          <mxGeometry x="-1415" y="-1980" width="469" height="265" as="geometry" />
        </mxCell>
        <mxCell id="avfBRFNsj0o9U9Dhmwhw-56" value="ClientParams" style="text;strokeColor=none;fillColor=none;html=1;fontSize=35;fontStyle=1;verticalAlign=middle;align=center;strokeWidth=3;fontColor=#000000000;" parent="1" vertex="1">
          <mxGeometry x="-1234" y="-1867.5" width="103.5" height="40" as="geometry" />
        </mxCell>
        <mxCell id="YuYByP1u1iifIEBijTTW-1" value="" style="group;strokeWidth=3;perimeterSpacing=3;" parent="1" vertex="1" connectable="0">
          <mxGeometry x="2459" y="-2108" width="550" height="185" as="geometry" />
        </mxCell>
        <mxCell id="YuYByP1u1iifIEBijTTW-3" value="" style="swimlane;startSize=0;container=0;direction=south;" parent="YuYByP1u1iifIEBijTTW-1" vertex="1">
          <mxGeometry width="550" height="185" as="geometry" />
        </mxCell>
        <mxCell id="YuYByP1u1iifIEBijTTW-2" value="&lt;font style=&quot;font-size: 35px;&quot;&gt;Schedule&lt;br style=&quot;border-color: var(--border-color);&quot;&gt;repository - Interface&lt;br&gt;&lt;/font&gt;" style="text;strokeColor=none;fillColor=none;html=1;fontSize=35;fontStyle=1;verticalAlign=middle;align=center;strokeWidth=3;container=0;" parent="YuYByP1u1iifIEBijTTW-3" vertex="1">
          <mxGeometry x="158.5" y="79.00199999999995" width="199.5" height="26.999999999999993" as="geometry" />
        </mxCell>
        <mxCell id="YuYByP1u1iifIEBijTTW-9" style="edgeStyle=orthogonalEdgeStyle;rounded=0;orthogonalLoop=1;jettySize=auto;html=1;startSize=6;strokeWidth=3;endSize=10;exitX=0.5;exitY=1;exitDx=0;exitDy=0;entryX=0.5;entryY=0;entryDx=0;entryDy=0;" parent="1" source="avfBRFNsj0o9U9Dhmwhw-43" target="r7-e_KJdZXoIzfTeK7qY-22" edge="1">
          <mxGeometry relative="1" as="geometry">
            <mxPoint x="-3780" y="1984" as="targetPoint" />
          </mxGeometry>
        </mxCell>
        <mxCell id="2f69r50Vy8f6bi6UpFMS-36" value="Assets" style="childLayout=tableLayout;recursiveResize=0;strokeColor=#98bf21;fillColor=#A7C942;shadow=1;" parent="1" vertex="1">
          <mxGeometry x="1568" y="-2190" width="661" height="1157" as="geometry" />
        </mxCell>
        <mxCell id="2f69r50Vy8f6bi6UpFMS-37" style="shape=tableRow;horizontal=0;startSize=0;swimlaneHead=0;swimlaneBody=0;top=0;left=0;bottom=0;right=0;dropTarget=0;collapsible=0;recursiveResize=0;expand=0;fontStyle=0;strokeColor=inherit;fillColor=#ffffff;" parent="2f69r50Vy8f6bi6UpFMS-36" vertex="1">
          <mxGeometry width="661" height="149" as="geometry" />
        </mxCell>
        <mxCell id="2f69r50Vy8f6bi6UpFMS-38" value="&lt;pre style=&quot;font-family: &amp;quot;JetBrains Mono&amp;quot;, monospace;&quot;&gt;&lt;font color=&quot;#000000&quot; style=&quot;font-size: 35px; background-color: rgb(167, 201, 66);&quot;&gt;schedule.db&lt;/font&gt;&lt;/pre&gt;" style="connectable=0;recursiveResize=0;strokeColor=inherit;fillColor=#A7C942;align=center;fontStyle=1;fontColor=#FFFFFF;html=1;rowspan=1;colspan=2;" parent="2f69r50Vy8f6bi6UpFMS-37" vertex="1">
          <mxGeometry width="661" height="149" as="geometry">
            <mxRectangle width="329" height="149" as="alternateBounds" />
          </mxGeometry>
        </mxCell>
        <mxCell id="2f69r50Vy8f6bi6UpFMS-39" value="Title 2" style="connectable=0;recursiveResize=0;strokeColor=inherit;fillColor=#A7C942;align=center;fontStyle=1;fontColor=#FFFFFF;html=1;" parent="2f69r50Vy8f6bi6UpFMS-37" vertex="1" visible="0">
          <mxGeometry x="329" width="332" height="149" as="geometry">
            <mxRectangle width="332" height="149" as="alternateBounds" />
          </mxGeometry>
        </mxCell>
        <mxCell id="2f69r50Vy8f6bi6UpFMS-40" value="" style="shape=tableRow;horizontal=0;startSize=0;swimlaneHead=0;swimlaneBody=0;top=0;left=0;bottom=0;right=0;dropTarget=0;collapsible=0;recursiveResize=0;expand=0;fontStyle=0;strokeColor=inherit;fillColor=#ffffff;" parent="2f69r50Vy8f6bi6UpFMS-36" vertex="1">
          <mxGeometry y="149" width="661" height="144" as="geometry" />
        </mxCell>
        <mxCell id="2f69r50Vy8f6bi6UpFMS-41" value="&lt;pre style=&quot;font-family: &amp;quot;JetBrains Mono&amp;quot;, monospace;&quot;&gt;&lt;font style=&quot;font-size: 35px;&quot;&gt;_id&lt;/font&gt;&lt;/pre&gt;" style="connectable=0;recursiveResize=0;strokeColor=inherit;fillColor=inherit;align=center;whiteSpace=wrap;html=1;" parent="2f69r50Vy8f6bi6UpFMS-40" vertex="1">
          <mxGeometry width="329" height="144" as="geometry">
            <mxRectangle width="329" height="144" as="alternateBounds" />
          </mxGeometry>
        </mxCell>
        <mxCell id="2f69r50Vy8f6bi6UpFMS-42" value="&lt;pre style=&quot;font-family: &amp;quot;JetBrains Mono&amp;quot;, monospace;&quot;&gt;&lt;span style=&quot;background-color: rgb(255, 255, 255);&quot;&gt;&lt;font style=&quot;font-size: 35px;&quot;&gt;integer&lt;/font&gt;&lt;/span&gt;&lt;/pre&gt;" style="connectable=0;recursiveResize=0;strokeColor=inherit;fillColor=inherit;align=center;whiteSpace=wrap;html=1;" parent="2f69r50Vy8f6bi6UpFMS-40" vertex="1">
          <mxGeometry x="329" width="332" height="144" as="geometry">
            <mxRectangle width="332" height="144" as="alternateBounds" />
          </mxGeometry>
        </mxCell>
        <mxCell id="2f69r50Vy8f6bi6UpFMS-43" style="shape=tableRow;horizontal=0;startSize=0;swimlaneHead=0;swimlaneBody=0;top=0;left=0;bottom=0;right=0;dropTarget=0;collapsible=0;recursiveResize=0;expand=0;fontStyle=0;strokeColor=inherit;fillColor=#ffffff;" parent="2f69r50Vy8f6bi6UpFMS-36" vertex="1">
          <mxGeometry y="293" width="661" height="144" as="geometry" />
        </mxCell>
        <mxCell id="2f69r50Vy8f6bi6UpFMS-44" value="&lt;br&gt;&lt;pre style=&quot;border-color: var(--border-color); color: rgb(0, 0, 0); font-size: 12px; font-style: normal; font-variant-ligatures: normal; font-variant-caps: normal; font-weight: 400; letter-spacing: normal; orphans: 2; text-align: center; text-indent: 0px; text-transform: none; widows: 2; word-spacing: 0px; -webkit-text-stroke-width: 0px; background-color: rgb(251, 251, 251); text-decoration-thickness: initial; text-decoration-style: initial; text-decoration-color: initial; font-family: &amp;quot;JetBrains Mono&amp;quot;, monospace;&quot;&gt;&lt;font style=&quot;border-color: var(--border-color); font-size: 35px;&quot;&gt;date&lt;/font&gt;&lt;/pre&gt;&lt;br&gt;" style="connectable=0;recursiveResize=0;strokeColor=inherit;fillColor=inherit;align=center;whiteSpace=wrap;html=1;" parent="2f69r50Vy8f6bi6UpFMS-43" vertex="1">
          <mxGeometry width="329" height="144" as="geometry">
            <mxRectangle width="329" height="144" as="alternateBounds" />
          </mxGeometry>
        </mxCell>
        <mxCell id="2f69r50Vy8f6bi6UpFMS-45" value="&lt;pre style=&quot;border-color: var(--border-color); font-family: &amp;quot;JetBrains Mono&amp;quot;, monospace;&quot;&gt;&lt;font style=&quot;border-color: var(--border-color); font-size: 35px;&quot;&gt;text&lt;/font&gt;&lt;/pre&gt;" style="connectable=0;recursiveResize=0;strokeColor=inherit;fillColor=inherit;align=center;whiteSpace=wrap;html=1;" parent="2f69r50Vy8f6bi6UpFMS-43" vertex="1">
          <mxGeometry x="329" width="332" height="144" as="geometry">
            <mxRectangle width="332" height="144" as="alternateBounds" />
          </mxGeometry>
        </mxCell>
        <mxCell id="2f69r50Vy8f6bi6UpFMS-46" style="shape=tableRow;horizontal=0;startSize=0;swimlaneHead=0;swimlaneBody=0;top=0;left=0;bottom=0;right=0;dropTarget=0;collapsible=0;recursiveResize=0;expand=0;fontStyle=0;strokeColor=inherit;fillColor=#ffffff;" parent="2f69r50Vy8f6bi6UpFMS-36" vertex="1">
          <mxGeometry y="437" width="661" height="144" as="geometry" />
        </mxCell>
        <mxCell id="2f69r50Vy8f6bi6UpFMS-47" value="&lt;br&gt;&lt;br class=&quot;Apple-interchange-newline&quot;&gt;&lt;font face=&quot;JetBrains Mono, monospace&quot;&gt;&lt;span style=&quot;font-size: 35px;&quot;&gt;start&lt;/span&gt;&lt;/font&gt;" style="connectable=0;recursiveResize=0;strokeColor=inherit;fillColor=inherit;align=center;whiteSpace=wrap;html=1;" parent="2f69r50Vy8f6bi6UpFMS-46" vertex="1">
          <mxGeometry width="329" height="144" as="geometry">
            <mxRectangle width="329" height="144" as="alternateBounds" />
          </mxGeometry>
        </mxCell>
        <mxCell id="2f69r50Vy8f6bi6UpFMS-48" value="&#xa;&lt;pre style=&quot;border-color: var(--border-color); color: rgb(0, 0, 0); font-size: 12px; font-style: normal; font-variant-ligatures: normal; font-variant-caps: normal; font-weight: 400; letter-spacing: normal; orphans: 2; text-align: center; text-indent: 0px; text-transform: none; widows: 2; word-spacing: 0px; -webkit-text-stroke-width: 0px; background-color: rgb(251, 251, 251); text-decoration-thickness: initial; text-decoration-style: initial; text-decoration-color: initial; font-family: &amp;quot;JetBrains Mono&amp;quot;, monospace;&quot;&gt;&lt;font style=&quot;border-color: var(--border-color); font-size: 35px;&quot;&gt;text&lt;/font&gt;&lt;/pre&gt;&#xa;&#xa;" style="connectable=0;recursiveResize=0;strokeColor=inherit;fillColor=inherit;align=center;whiteSpace=wrap;html=1;" parent="2f69r50Vy8f6bi6UpFMS-46" vertex="1">
          <mxGeometry x="329" width="332" height="144" as="geometry">
            <mxRectangle width="332" height="144" as="alternateBounds" />
          </mxGeometry>
        </mxCell>
        <mxCell id="2f69r50Vy8f6bi6UpFMS-61" style="shape=tableRow;horizontal=0;startSize=0;swimlaneHead=0;swimlaneBody=0;top=0;left=0;bottom=0;right=0;dropTarget=0;collapsible=0;recursiveResize=0;expand=0;fontStyle=0;strokeColor=inherit;fillColor=#ffffff;" parent="2f69r50Vy8f6bi6UpFMS-36" vertex="1">
          <mxGeometry y="581" width="661" height="144" as="geometry" />
        </mxCell>
        <mxCell id="2f69r50Vy8f6bi6UpFMS-62" value="&lt;font face=&quot;JetBrains Mono, monospace&quot;&gt;&lt;span style=&quot;font-size: 35px;&quot;&gt;procedure&lt;/span&gt;&lt;/font&gt;" style="connectable=0;recursiveResize=0;strokeColor=inherit;fillColor=inherit;align=center;whiteSpace=wrap;html=1;" parent="2f69r50Vy8f6bi6UpFMS-61" vertex="1">
          <mxGeometry width="329" height="144" as="geometry">
            <mxRectangle width="329" height="144" as="alternateBounds" />
          </mxGeometry>
        </mxCell>
        <mxCell id="2f69r50Vy8f6bi6UpFMS-63" value="&#xa;&lt;pre style=&quot;border-color: var(--border-color); color: rgb(0, 0, 0); font-size: 12px; font-style: normal; font-variant-ligatures: normal; font-variant-caps: normal; font-weight: 400; letter-spacing: normal; orphans: 2; text-align: center; text-indent: 0px; text-transform: none; widows: 2; word-spacing: 0px; -webkit-text-stroke-width: 0px; text-decoration-thickness: initial; text-decoration-style: initial; text-decoration-color: initial; background-color: rgb(251, 251, 251); font-family: &amp;quot;JetBrains Mono&amp;quot;, monospace;&quot;&gt;&lt;font style=&quot;border-color: var(--border-color); font-size: 35px;&quot;&gt;text&lt;/font&gt;&lt;/pre&gt;&#xa;&#xa;" style="connectable=0;recursiveResize=0;strokeColor=inherit;fillColor=inherit;align=center;whiteSpace=wrap;html=1;" parent="2f69r50Vy8f6bi6UpFMS-61" vertex="1">
          <mxGeometry x="329" width="332" height="144" as="geometry">
            <mxRectangle width="332" height="144" as="alternateBounds" />
          </mxGeometry>
        </mxCell>
        <mxCell id="2f69r50Vy8f6bi6UpFMS-58" style="shape=tableRow;horizontal=0;startSize=0;swimlaneHead=0;swimlaneBody=0;top=0;left=0;bottom=0;right=0;dropTarget=0;collapsible=0;recursiveResize=0;expand=0;fontStyle=0;strokeColor=inherit;fillColor=#ffffff;" parent="2f69r50Vy8f6bi6UpFMS-36" vertex="1">
          <mxGeometry y="725" width="661" height="144" as="geometry" />
        </mxCell>
        <mxCell id="2f69r50Vy8f6bi6UpFMS-59" value="&lt;br&gt;&lt;br style=&quot;border-color: var(--border-color); color: rgb(0, 0, 0); font-family: Helvetica; font-size: 12px; font-style: normal; font-variant-ligatures: normal; font-variant-caps: normal; font-weight: 400; letter-spacing: normal; orphans: 2; text-align: center; text-indent: 0px; text-transform: none; widows: 2; word-spacing: 0px; -webkit-text-stroke-width: 0px; background-color: rgb(251, 251, 251); text-decoration-thickness: initial; text-decoration-style: initial; text-decoration-color: initial;&quot;&gt;&lt;font style=&quot;border-color: var(--border-color); color: rgb(0, 0, 0); font-size: 12px; font-style: normal; font-variant-ligatures: normal; font-variant-caps: normal; font-weight: 400; letter-spacing: normal; orphans: 2; text-align: center; text-indent: 0px; text-transform: none; widows: 2; word-spacing: 0px; -webkit-text-stroke-width: 0px; background-color: rgb(251, 251, 251); text-decoration-thickness: initial; text-decoration-style: initial; text-decoration-color: initial;&quot; face=&quot;JetBrains Mono, monospace&quot;&gt;&lt;span style=&quot;border-color: var(--border-color); font-size: 35px;&quot;&gt;name&lt;/span&gt;&lt;/font&gt;" style="connectable=0;recursiveResize=0;strokeColor=inherit;fillColor=inherit;align=center;whiteSpace=wrap;html=1;" parent="2f69r50Vy8f6bi6UpFMS-58" vertex="1">
          <mxGeometry width="329" height="144" as="geometry">
            <mxRectangle width="329" height="144" as="alternateBounds" />
          </mxGeometry>
        </mxCell>
        <mxCell id="2f69r50Vy8f6bi6UpFMS-60" value="&#xa;&lt;pre style=&quot;border-color: var(--border-color); color: rgb(0, 0, 0); font-size: 12px; font-style: normal; font-variant-ligatures: normal; font-variant-caps: normal; font-weight: 400; letter-spacing: normal; orphans: 2; text-align: center; text-indent: 0px; text-transform: none; widows: 2; word-spacing: 0px; -webkit-text-stroke-width: 0px; text-decoration-thickness: initial; text-decoration-style: initial; text-decoration-color: initial; background-color: rgb(251, 251, 251); font-family: &amp;quot;JetBrains Mono&amp;quot;, monospace;&quot;&gt;&lt;font style=&quot;border-color: var(--border-color); font-size: 35px;&quot;&gt;text&lt;/font&gt;&lt;/pre&gt;&#xa;&#xa;" style="connectable=0;recursiveResize=0;strokeColor=inherit;fillColor=inherit;align=center;whiteSpace=wrap;html=1;" parent="2f69r50Vy8f6bi6UpFMS-58" vertex="1">
          <mxGeometry x="329" width="332" height="144" as="geometry">
            <mxRectangle width="332" height="144" as="alternateBounds" />
          </mxGeometry>
        </mxCell>
        <mxCell id="2f69r50Vy8f6bi6UpFMS-55" style="shape=tableRow;horizontal=0;startSize=0;swimlaneHead=0;swimlaneBody=0;top=0;left=0;bottom=0;right=0;dropTarget=0;collapsible=0;recursiveResize=0;expand=0;fontStyle=0;strokeColor=inherit;fillColor=#ffffff;" parent="2f69r50Vy8f6bi6UpFMS-36" vertex="1">
          <mxGeometry y="869" width="661" height="144" as="geometry" />
        </mxCell>
        <mxCell id="2f69r50Vy8f6bi6UpFMS-56" value="&lt;br&gt;&lt;br style=&quot;border-color: var(--border-color); color: rgb(0, 0, 0); font-family: Helvetica; font-size: 12px; font-style: normal; font-variant-ligatures: normal; font-variant-caps: normal; font-weight: 400; letter-spacing: normal; orphans: 2; text-align: center; text-indent: 0px; text-transform: none; widows: 2; word-spacing: 0px; -webkit-text-stroke-width: 0px; background-color: rgb(251, 251, 251); text-decoration-thickness: initial; text-decoration-style: initial; text-decoration-color: initial;&quot;&gt;&lt;font style=&quot;border-color: var(--border-color); color: rgb(0, 0, 0); font-size: 12px; font-style: normal; font-variant-ligatures: normal; font-variant-caps: normal; font-weight: 400; letter-spacing: normal; orphans: 2; text-align: center; text-indent: 0px; text-transform: none; widows: 2; word-spacing: 0px; -webkit-text-stroke-width: 0px; background-color: rgb(251, 251, 251); text-decoration-thickness: initial; text-decoration-style: initial; text-decoration-color: initial;&quot; face=&quot;JetBrains Mono, monospace&quot;&gt;&lt;span style=&quot;border-color: var(--border-color); font-size: 35px;&quot;&gt;phone&lt;/span&gt;&lt;/font&gt;" style="connectable=0;recursiveResize=0;strokeColor=inherit;fillColor=inherit;align=center;whiteSpace=wrap;html=1;" parent="2f69r50Vy8f6bi6UpFMS-55" vertex="1">
          <mxGeometry width="329" height="144" as="geometry">
            <mxRectangle width="329" height="144" as="alternateBounds" />
          </mxGeometry>
        </mxCell>
        <mxCell id="2f69r50Vy8f6bi6UpFMS-57" value="&#xa;&lt;pre style=&quot;border-color: var(--border-color); color: rgb(0, 0, 0); font-size: 12px; font-style: normal; font-variant-ligatures: normal; font-variant-caps: normal; font-weight: 400; letter-spacing: normal; orphans: 2; text-align: center; text-indent: 0px; text-transform: none; widows: 2; word-spacing: 0px; -webkit-text-stroke-width: 0px; text-decoration-thickness: initial; text-decoration-style: initial; text-decoration-color: initial; background-color: rgb(251, 251, 251); font-family: &amp;quot;JetBrains Mono&amp;quot;, monospace;&quot;&gt;&lt;font style=&quot;border-color: var(--border-color); font-size: 35px;&quot;&gt;text&lt;/font&gt;&lt;/pre&gt;&#xa;&#xa;" style="connectable=0;recursiveResize=0;strokeColor=inherit;fillColor=inherit;align=center;whiteSpace=wrap;html=1;" parent="2f69r50Vy8f6bi6UpFMS-55" vertex="1">
          <mxGeometry x="329" width="332" height="144" as="geometry">
            <mxRectangle width="332" height="144" as="alternateBounds" />
          </mxGeometry>
        </mxCell>
        <mxCell id="2f69r50Vy8f6bi6UpFMS-52" style="shape=tableRow;horizontal=0;startSize=0;swimlaneHead=0;swimlaneBody=0;top=0;left=0;bottom=0;right=0;dropTarget=0;collapsible=0;recursiveResize=0;expand=0;fontStyle=0;strokeColor=inherit;fillColor=#ffffff;" parent="2f69r50Vy8f6bi6UpFMS-36" vertex="1">
          <mxGeometry y="1013" width="661" height="144" as="geometry" />
        </mxCell>
        <mxCell id="2f69r50Vy8f6bi6UpFMS-53" value="&lt;br&gt;&lt;br style=&quot;border-color: var(--border-color); color: rgb(0, 0, 0); font-family: Helvetica; font-size: 12px; font-style: normal; font-variant-ligatures: normal; font-variant-caps: normal; font-weight: 400; letter-spacing: normal; orphans: 2; text-align: center; text-indent: 0px; text-transform: none; widows: 2; word-spacing: 0px; -webkit-text-stroke-width: 0px; background-color: rgb(251, 251, 251); text-decoration-thickness: initial; text-decoration-style: initial; text-decoration-color: initial;&quot;&gt;&lt;font style=&quot;border-color: var(--border-color); color: rgb(0, 0, 0); font-size: 12px; font-style: normal; font-variant-ligatures: normal; font-variant-caps: normal; font-weight: 400; letter-spacing: normal; orphans: 2; text-align: center; text-indent: 0px; text-transform: none; widows: 2; word-spacing: 0px; -webkit-text-stroke-width: 0px; background-color: rgb(251, 251, 251); text-decoration-thickness: initial; text-decoration-style: initial; text-decoration-color: initial;&quot; face=&quot;JetBrains Mono, monospace&quot;&gt;&lt;span style=&quot;border-color: var(--border-color); font-size: 35px;&quot;&gt;misk&lt;/span&gt;&lt;/font&gt;" style="connectable=0;recursiveResize=0;strokeColor=inherit;fillColor=inherit;align=center;whiteSpace=wrap;html=1;" parent="2f69r50Vy8f6bi6UpFMS-52" vertex="1">
          <mxGeometry width="329" height="144" as="geometry">
            <mxRectangle width="329" height="144" as="alternateBounds" />
          </mxGeometry>
        </mxCell>
        <mxCell id="2f69r50Vy8f6bi6UpFMS-54" value="&lt;br&gt;&lt;pre style=&quot;border-color: var(--border-color); color: rgb(0, 0, 0); font-size: 12px; font-style: normal; font-variant-ligatures: normal; font-variant-caps: normal; font-weight: 400; letter-spacing: normal; orphans: 2; text-align: center; text-indent: 0px; text-transform: none; widows: 2; word-spacing: 0px; -webkit-text-stroke-width: 0px; text-decoration-thickness: initial; text-decoration-style: initial; text-decoration-color: initial; background-color: rgb(251, 251, 251); font-family: &amp;quot;JetBrains Mono&amp;quot;, monospace;&quot;&gt;&lt;font style=&quot;border-color: var(--border-color); font-size: 35px;&quot;&gt;text&lt;/font&gt;&lt;/pre&gt;" style="connectable=0;recursiveResize=0;strokeColor=inherit;fillColor=inherit;align=center;whiteSpace=wrap;html=1;" parent="2f69r50Vy8f6bi6UpFMS-52" vertex="1">
          <mxGeometry x="329" width="332" height="144" as="geometry">
            <mxRectangle width="332" height="144" as="alternateBounds" />
          </mxGeometry>
        </mxCell>
        <mxCell id="iA5bzWbAHc4cPXL_J6av-32" style="edgeStyle=orthogonalEdgeStyle;rounded=0;orthogonalLoop=1;jettySize=auto;html=1;entryX=1;entryY=0;entryDx=0;entryDy=0;strokeWidth=3;startSize=10;" parent="1" source="2f69r50Vy8f6bi6UpFMS-52" target="YuYByP1u1iifIEBijTTW-3" edge="1">
          <mxGeometry relative="1" as="geometry" />
        </mxCell>
        <mxCell id="iA5bzWbAHc4cPXL_J6av-36" style="edgeStyle=orthogonalEdgeStyle;rounded=0;orthogonalLoop=1;jettySize=auto;html=1;entryX=1;entryY=0.25;entryDx=0;entryDy=0;strokeWidth=3;startSize=10;" parent="1" source="2f69r50Vy8f6bi6UpFMS-55" target="YuYByP1u1iifIEBijTTW-3" edge="1">
          <mxGeometry relative="1" as="geometry" />
        </mxCell>
        <mxCell id="iA5bzWbAHc4cPXL_J6av-37" style="edgeStyle=orthogonalEdgeStyle;rounded=0;orthogonalLoop=1;jettySize=auto;html=1;entryX=1;entryY=0.5;entryDx=0;entryDy=0;strokeWidth=3;startSize=10;" parent="1" source="2f69r50Vy8f6bi6UpFMS-58" target="YuYByP1u1iifIEBijTTW-3" edge="1">
          <mxGeometry relative="1" as="geometry" />
        </mxCell>
        <mxCell id="iA5bzWbAHc4cPXL_J6av-38" style="edgeStyle=orthogonalEdgeStyle;rounded=0;orthogonalLoop=1;jettySize=auto;html=1;strokeWidth=3;startSize=10;entryX=1;entryY=0.75;entryDx=0;entryDy=0;" parent="1" source="2f69r50Vy8f6bi6UpFMS-61" target="YuYByP1u1iifIEBijTTW-3" edge="1">
          <mxGeometry relative="1" as="geometry">
            <mxPoint x="2708" y="-1770" as="targetPoint" />
          </mxGeometry>
        </mxCell>
        <mxCell id="iA5bzWbAHc4cPXL_J6av-40" style="edgeStyle=orthogonalEdgeStyle;rounded=0;orthogonalLoop=1;jettySize=auto;html=1;entryX=1;entryY=1;entryDx=0;entryDy=0;strokeWidth=3;startSize=10;" parent="1" source="2f69r50Vy8f6bi6UpFMS-46" target="YuYByP1u1iifIEBijTTW-3" edge="1">
          <mxGeometry relative="1" as="geometry" />
        </mxCell>
        <mxCell id="iA5bzWbAHc4cPXL_J6av-41" style="edgeStyle=orthogonalEdgeStyle;rounded=0;orthogonalLoop=1;jettySize=auto;html=1;entryX=0.75;entryY=1;entryDx=0;entryDy=0;strokeWidth=3;startSize=10;" parent="1" source="2f69r50Vy8f6bi6UpFMS-40" target="YuYByP1u1iifIEBijTTW-3" edge="1">
          <mxGeometry relative="1" as="geometry" />
        </mxCell>
        <mxCell id="iA5bzWbAHc4cPXL_J6av-64" value="" style="ellipse;whiteSpace=wrap;html=1;strokeWidth=3;" parent="1" vertex="1">
          <mxGeometry x="-1890.5" y="-1710" width="469" height="265" as="geometry" />
        </mxCell>
        <mxCell id="iA5bzWbAHc4cPXL_J6av-65" value="DateParams" style="text;strokeColor=none;fillColor=none;html=1;fontSize=35;fontStyle=1;verticalAlign=middle;align=center;strokeWidth=3;fontColor=#000000000;" parent="1" vertex="1">
          <mxGeometry x="-1709.5" y="-1597.5" width="103.5" height="40" as="geometry" />
        </mxCell>
        <mxCell id="SVaRUMiZghCefNMMYYes-30" value="storage" style="text;strokeColor=none;fillColor=none;html=1;fontSize=48;fontStyle=1;verticalAlign=middle;align=center;strokeWidth=3;" parent="1" vertex="1">
          <mxGeometry x="1287" y="-2670" width="170" height="40" as="geometry" />
        </mxCell>
        <mxCell id="SVaRUMiZghCefNMMYYes-32" value="" style="group;strokeWidth=3;" parent="1" vertex="1" connectable="0">
          <mxGeometry x="1628" y="-2520" width="460" height="185" as="geometry" />
        </mxCell>
        <mxCell id="SVaRUMiZghCefNMMYYes-33" value="SharedPrefs" style="text;strokeColor=none;fillColor=none;html=1;fontSize=35;fontStyle=1;verticalAlign=middle;align=center;strokeWidth=3;container=0;" parent="SVaRUMiZghCefNMMYYes-32" vertex="1">
          <mxGeometry x="99.75" y="79.00199999999995" width="199.5" height="26.999999999999993" as="geometry" />
        </mxCell>
        <mxCell id="SVaRUMiZghCefNMMYYes-34" value="" style="swimlane;startSize=0;container=0;" parent="SVaRUMiZghCefNMMYYes-32" vertex="1">
          <mxGeometry x="-70" width="530" height="185" as="geometry" />
        </mxCell>
        <mxCell id="g3TXEs6j1-RWAtcXsQVe-15" value="/" style="swimlane;startSize=0;container=0;strokeWidth=3;" parent="1" vertex="1">
          <mxGeometry x="-179" y="650" width="398" height="184.99999999999994" as="geometry" />
        </mxCell>
        <mxCell id="g3TXEs6j1-RWAtcXsQVe-16" value="Schedule&lt;br&gt;repository - Interface" style="text;strokeColor=none;fillColor=none;html=1;fontSize=35;fontStyle=1;verticalAlign=middle;align=center;strokeWidth=3;container=0;" parent="g3TXEs6j1-RWAtcXsQVe-15" vertex="1">
          <mxGeometry x="99.25" y="79.00199999999995" width="199.5" height="26.999999999999993" as="geometry" />
        </mxCell>
        <mxCell id="wV7pngzf2u6qVaiz4FVF-8" value="" style="group;strokeWidth=3;perimeterSpacing=3;" parent="1" vertex="1" connectable="0">
          <mxGeometry x="-157" y="-2020" width="550" height="185" as="geometry" />
        </mxCell>
        <mxCell id="wV7pngzf2u6qVaiz4FVF-9" value="" style="swimlane;startSize=0;container=0;direction=south;strokeWidth=3;" parent="wV7pngzf2u6qVaiz4FVF-8" vertex="1">
          <mxGeometry x="-30" y="95" width="550" height="185" as="geometry" />
        </mxCell>
        <mxCell id="wV7pngzf2u6qVaiz4FVF-10" value="&lt;font style=&quot;font-size: 35px;&quot;&gt;Schedule&lt;br&gt;repository - Implementation&lt;br&gt;&lt;/font&gt;" style="text;strokeColor=none;fillColor=none;html=1;fontSize=35;fontStyle=1;verticalAlign=middle;align=center;strokeWidth=3;container=0;" parent="wV7pngzf2u6qVaiz4FVF-9" vertex="1">
          <mxGeometry x="158.5" y="79.00199999999995" width="199.5" height="26.999999999999993" as="geometry" />
        </mxCell>
        <mxCell id="r7-e_KJdZXoIzfTeK7qY-1" value="" style="swimlane;startSize=0;container=0;strokeWidth=3;" parent="1" vertex="1">
          <mxGeometry x="10115" y="3054.93" width="260" height="274.07" as="geometry" />
        </mxCell>
        <mxCell id="r7-e_KJdZXoIzfTeK7qY-4" value="Import/Export&lt;br&gt;Fragment" style="text;strokeColor=none;fillColor=none;html=1;fontSize=35;fontStyle=1;verticalAlign=middle;align=center;strokeWidth=3;container=0;" parent="r7-e_KJdZXoIzfTeK7qY-1" vertex="1">
          <mxGeometry x="80" y="112.0300000000002" width="100" height="40" as="geometry" />
        </mxCell>
        <mxCell id="r7-e_KJdZXoIzfTeK7qY-2" value="" style="swimlane;startSize=0;container=0;strokeWidth=3;" parent="1" vertex="1">
          <mxGeometry x="10115" y="2690" width="260" height="284.07" as="geometry" />
        </mxCell>
        <mxCell id="r7-e_KJdZXoIzfTeK7qY-3" value="Import/Export&lt;br style=&quot;font-size: 35px;&quot;&gt;ViewModel" style="text;strokeColor=none;fillColor=none;html=1;fontSize=35;fontStyle=1;verticalAlign=middle;align=center;strokeWidth=3;container=0;" parent="r7-e_KJdZXoIzfTeK7qY-2" vertex="1">
          <mxGeometry x="80" y="107.08" width="100" height="42.96" as="geometry" />
        </mxCell>
        <mxCell id="r7-e_KJdZXoIzfTeK7qY-7" style="edgeStyle=orthogonalEdgeStyle;rounded=0;orthogonalLoop=1;jettySize=auto;html=1;entryX=0.5;entryY=0;entryDx=0;entryDy=0;strokeWidth=3;endSize=10;exitX=0.5;exitY=1;exitDx=0;exitDy=0;" parent="1" source="4gGjTpzzvBJ2QWFjTk4x-115" target="4gGjTpzzvBJ2QWFjTk4x-118" edge="1">
          <mxGeometry relative="1" as="geometry">
            <mxPoint x="9635.07" y="2979.93" as="sourcePoint" />
            <mxPoint x="9635.07" y="3060.93" as="targetPoint" />
            <Array as="points">
              <mxPoint x="9640" y="3010" />
              <mxPoint x="9640" y="3010" />
            </Array>
          </mxGeometry>
        </mxCell>
        <mxCell id="r7-e_KJdZXoIzfTeK7qY-8" style="edgeStyle=orthogonalEdgeStyle;rounded=0;orthogonalLoop=1;jettySize=auto;html=1;entryX=0.5;entryY=0;entryDx=0;entryDy=0;strokeWidth=3;endSize=10;exitX=0.5;exitY=1;exitDx=0;exitDy=0;" parent="1" source="4gGjTpzzvBJ2QWFjTk4x-120" target="4gGjTpzzvBJ2QWFjTk4x-123" edge="1">
          <mxGeometry relative="1" as="geometry">
            <mxPoint x="9905" y="2974.0699999999997" as="sourcePoint" />
            <mxPoint x="9905" y="3055.0699999999997" as="targetPoint" />
            <Array as="points">
              <mxPoint x="9930" y="3010" />
              <mxPoint x="9930" y="3010" />
            </Array>
          </mxGeometry>
        </mxCell>
        <mxCell id="r7-e_KJdZXoIzfTeK7qY-9" style="edgeStyle=orthogonalEdgeStyle;rounded=0;orthogonalLoop=1;jettySize=auto;html=1;entryX=0.5;entryY=0;entryDx=0;entryDy=0;strokeWidth=3;endSize=10;exitX=0.5;exitY=1;exitDx=0;exitDy=0;" parent="1" source="r7-e_KJdZXoIzfTeK7qY-2" target="r7-e_KJdZXoIzfTeK7qY-1" edge="1">
          <mxGeometry relative="1" as="geometry">
            <mxPoint x="10243.71" y="2979.9999999999995" as="sourcePoint" />
            <mxPoint x="10243.71" y="3060.9999999999995" as="targetPoint" />
            <Array as="points">
              <mxPoint x="10244" y="2974" />
              <mxPoint x="10244" y="3055" />
            </Array>
          </mxGeometry>
        </mxCell>
        <mxCell id="r7-e_KJdZXoIzfTeK7qY-20" value="" style="group" parent="1" vertex="1" connectable="0">
          <mxGeometry x="-4010" y="710" width="399" height="184.99999999999994" as="geometry" />
        </mxCell>
        <mxCell id="avfBRFNsj0o9U9Dhmwhw-44" value="Schedule&lt;br&gt;repository - Interface" style="text;strokeColor=none;fillColor=none;html=1;fontSize=35;fontStyle=1;verticalAlign=middle;align=center;strokeWidth=3;container=0;" parent="r7-e_KJdZXoIzfTeK7qY-20" vertex="1">
          <mxGeometry x="90.25" y="79.00199999999995" width="199.5" height="26.999999999999993" as="geometry" />
        </mxCell>
        <mxCell id="avfBRFNsj0o9U9Dhmwhw-43" value="" style="swimlane;startSize=0;container=0;strokeWidth=3;" parent="r7-e_KJdZXoIzfTeK7qY-20" vertex="1">
          <mxGeometry width="399" height="184.99999999999994" as="geometry" />
        </mxCell>
        <mxCell id="r7-e_KJdZXoIzfTeK7qY-48" value="" style="group" parent="1" vertex="1" connectable="0">
          <mxGeometry x="-4280" y="2004" width="1020" height="334" as="geometry" />
        </mxCell>
        <mxCell id="r7-e_KJdZXoIzfTeK7qY-22" value="" style="rounded=0;whiteSpace=wrap;html=1;glass=0;strokeColor=default;dashed=1;dashPattern=8 8;strokeWidth=2;shadow=0;" parent="r7-e_KJdZXoIzfTeK7qY-48" vertex="1">
          <mxGeometry width="1000" height="330" as="geometry" />
        </mxCell>
        <mxCell id="4gGjTpzzvBJ2QWFjTk4x-244" value="" style="ellipse;whiteSpace=wrap;html=1;aspect=fixed;strokeWidth=3;fontSize=48;container=0;fillColor=#e1d5e7;strokeColor=#9673a6;" parent="r7-e_KJdZXoIzfTeK7qY-48" vertex="1">
          <mxGeometry y="4" width="330" height="330" as="geometry" />
        </mxCell>
        <mxCell id="r7-e_KJdZXoIzfTeK7qY-15" value="" style="group" parent="r7-e_KJdZXoIzfTeK7qY-48" vertex="1" connectable="0">
          <mxGeometry width="330" height="330" as="geometry" />
        </mxCell>
        <mxCell id="4gGjTpzzvBJ2QWFjTk4x-245" value="&lt;font&gt;Insert&lt;br&gt;Appointment&lt;/font&gt;" style="text;strokeColor=none;fillColor=none;html=1;fontSize=35;fontStyle=1;verticalAlign=middle;align=center;strokeWidth=3;fontColor=#000000000;container=0;" parent="r7-e_KJdZXoIzfTeK7qY-15" vertex="1">
          <mxGeometry x="117" y="145" width="100" height="40" as="geometry" />
        </mxCell>
        <mxCell id="4gGjTpzzvBJ2QWFjTk4x-250" value="" style="ellipse;whiteSpace=wrap;html=1;aspect=fixed;strokeWidth=3;fontSize=48;container=0;fillColor=#e1d5e7;strokeColor=#9673a6;" parent="r7-e_KJdZXoIzfTeK7qY-48" vertex="1">
          <mxGeometry x="330" width="330" height="330" as="geometry" />
        </mxCell>
        <mxCell id="4gGjTpzzvBJ2QWFjTk4x-251" value="&lt;font&gt;Update&lt;br&gt;Appointment&lt;/font&gt;" style="text;strokeColor=none;fillColor=none;html=1;fontSize=35;fontStyle=1;verticalAlign=middle;align=center;strokeWidth=3;fontColor=#000000000;container=0;" parent="r7-e_KJdZXoIzfTeK7qY-48" vertex="1">
          <mxGeometry x="445" y="145" width="100" height="40" as="geometry" />
        </mxCell>
        <mxCell id="J2Ls83ueX8J15JTTdsfE-16" value="" style="ellipse;whiteSpace=wrap;html=1;aspect=fixed;strokeWidth=3;fontSize=48;container=0;fillColor=#e1d5e7;strokeColor=#9673a6;" vertex="1" parent="r7-e_KJdZXoIzfTeK7qY-48">
          <mxGeometry x="660" width="330" height="330" as="geometry" />
        </mxCell>
        <mxCell id="J2Ls83ueX8J15JTTdsfE-17" value="VK, TG, Insta, &lt;br&gt;WhsApp&lt;br&gt;Phone" style="text;strokeColor=none;fillColor=none;html=1;fontSize=35;fontStyle=1;verticalAlign=middle;align=center;strokeWidth=3;fontColor=#000000000;container=0;" vertex="1" parent="r7-e_KJdZXoIzfTeK7qY-48">
          <mxGeometry x="775" y="145" width="100" height="40" as="geometry" />
        </mxCell>
        <mxCell id="r7-e_KJdZXoIzfTeK7qY-51" value="/" style="swimlane;startSize=0;container=0;strokeWidth=3;" parent="1" vertex="1">
          <mxGeometry x="-950" y="640" width="398" height="184.99999999999994" as="geometry" />
        </mxCell>
        <mxCell id="r7-e_KJdZXoIzfTeK7qY-52" value="Settings &lt;br&gt;repository - Interface" style="text;strokeColor=none;fillColor=none;html=1;fontSize=35;fontStyle=1;verticalAlign=middle;align=center;strokeWidth=3;container=0;" parent="r7-e_KJdZXoIzfTeK7qY-51" vertex="1">
          <mxGeometry x="99.25" y="79.00199999999995" width="199.5" height="26.999999999999993" as="geometry" />
        </mxCell>
        <mxCell id="r7-e_KJdZXoIzfTeK7qY-69" value="" style="group" parent="1" vertex="1" connectable="0">
          <mxGeometry x="2860" y="1898" width="1321" height="330" as="geometry" />
        </mxCell>
        <mxCell id="r7-e_KJdZXoIzfTeK7qY-70" value="" style="rounded=0;whiteSpace=wrap;html=1;glass=0;strokeColor=default;dashed=1;dashPattern=8 8;strokeWidth=2;shadow=0;" parent="r7-e_KJdZXoIzfTeK7qY-69" vertex="1">
          <mxGeometry x="1" width="1320" height="329" as="geometry" />
        </mxCell>
        <mxCell id="r7-e_KJdZXoIzfTeK7qY-71" value="" style="ellipse;whiteSpace=wrap;html=1;aspect=fixed;strokeWidth=3;fontSize=48;container=0;fillColor=#d5e8d4;strokeColor=#82b366;" parent="r7-e_KJdZXoIzfTeK7qY-69" vertex="1">
          <mxGeometry width="330" height="330" as="geometry" />
        </mxCell>
        <mxCell id="r7-e_KJdZXoIzfTeK7qY-72" value="Insert&lt;br&gt;Appointment" style="text;strokeColor=none;fillColor=none;html=1;fontSize=35;fontStyle=1;verticalAlign=middle;align=center;strokeWidth=3;fontColor=#000000000;container=0;" parent="r7-e_KJdZXoIzfTeK7qY-69" vertex="1">
          <mxGeometry x="115" y="145" width="100" height="40" as="geometry" />
        </mxCell>
        <mxCell id="r7-e_KJdZXoIzfTeK7qY-73" value="" style="ellipse;whiteSpace=wrap;html=1;aspect=fixed;strokeWidth=3;fontSize=48;container=0;fillColor=#d5e8d4;strokeColor=#82b366;" parent="r7-e_KJdZXoIzfTeK7qY-69" vertex="1">
          <mxGeometry x="330" width="330" height="330" as="geometry" />
        </mxCell>
        <mxCell id="r7-e_KJdZXoIzfTeK7qY-74" value="Delete&lt;br&gt;Appointment" style="text;strokeColor=none;fillColor=none;html=1;fontSize=35;fontStyle=1;verticalAlign=middle;align=center;strokeWidth=3;fontColor=#000000000;container=0;" parent="r7-e_KJdZXoIzfTeK7qY-69" vertex="1">
          <mxGeometry x="445" y="145" width="100" height="40" as="geometry" />
        </mxCell>
        <mxCell id="r7-e_KJdZXoIzfTeK7qY-75" value="" style="ellipse;whiteSpace=wrap;html=1;aspect=fixed;strokeWidth=3;fontSize=48;container=0;fillColor=#d5e8d4;strokeColor=#82b366;" parent="r7-e_KJdZXoIzfTeK7qY-69" vertex="1">
          <mxGeometry x="660" width="330" height="330" as="geometry" />
        </mxCell>
        <mxCell id="r7-e_KJdZXoIzfTeK7qY-76" value="GetDate&lt;br&gt;Appointments" style="text;strokeColor=none;fillColor=none;html=1;fontSize=35;fontStyle=1;verticalAlign=middle;align=center;strokeWidth=3;fontColor=#000000000;container=0;" parent="r7-e_KJdZXoIzfTeK7qY-69" vertex="1">
          <mxGeometry x="775" y="145" width="100" height="40" as="geometry" />
        </mxCell>
        <mxCell id="r7-e_KJdZXoIzfTeK7qY-77" value="" style="ellipse;whiteSpace=wrap;html=1;aspect=fixed;strokeWidth=3;fontSize=48;container=0;fillColor=#d5e8d4;strokeColor=#82b366;" parent="r7-e_KJdZXoIzfTeK7qY-69" vertex="1">
          <mxGeometry x="990" width="330" height="330" as="geometry" />
        </mxCell>
        <mxCell id="r7-e_KJdZXoIzfTeK7qY-78" value="VK, TG, Insta,&lt;br style=&quot;border-color: var(--border-color);&quot;&gt;WhsApp&lt;br style=&quot;border-color: var(--border-color);&quot;&gt;Phone" style="text;strokeColor=none;fillColor=none;html=1;fontSize=35;fontStyle=1;verticalAlign=middle;align=center;strokeWidth=3;fontColor=#000000000;container=0;" parent="r7-e_KJdZXoIzfTeK7qY-69" vertex="1">
          <mxGeometry x="1105" y="145" width="100" height="40" as="geometry" />
        </mxCell>
        <mxCell id="r7-e_KJdZXoIzfTeK7qY-81" value="/" style="swimlane;startSize=0;container=0;strokeWidth=3;" parent="1" vertex="1">
          <mxGeometry x="3321.5" y="640" width="398" height="184.99999999999994" as="geometry" />
        </mxCell>
        <mxCell id="r7-e_KJdZXoIzfTeK7qY-82" value="Schedule&lt;br&gt;repository - Interface" style="text;strokeColor=none;fillColor=none;html=1;fontSize=35;fontStyle=1;verticalAlign=middle;align=center;strokeWidth=3;container=0;" parent="r7-e_KJdZXoIzfTeK7qY-81" vertex="1">
          <mxGeometry x="99.25" y="79.00199999999995" width="199.5" height="26.999999999999993" as="geometry" />
        </mxCell>
        <mxCell id="r7-e_KJdZXoIzfTeK7qY-83" style="edgeStyle=orthogonalEdgeStyle;rounded=0;orthogonalLoop=1;jettySize=auto;html=1;entryX=0.5;entryY=0;entryDx=0;entryDy=0;strokeWidth=3;startSize=10;exitX=0.5;exitY=1;exitDx=0;exitDy=0;" parent="1" source="r7-e_KJdZXoIzfTeK7qY-81" target="r7-e_KJdZXoIzfTeK7qY-70" edge="1">
          <mxGeometry relative="1" as="geometry">
            <mxPoint x="2778" y="1594" as="sourcePoint" />
            <mxPoint x="3540" y="1814" as="targetPoint" />
          </mxGeometry>
        </mxCell>
        <mxCell id="J2Ls83ueX8J15JTTdsfE-1" style="edgeStyle=orthogonalEdgeStyle;rounded=0;jumpSize=11;orthogonalLoop=1;jettySize=auto;html=1;strokeWidth=3;fontSize=35;fontColor=#FF3333;endSize=10;startArrow=classic;startFill=1;endArrow=none;endFill=0;exitX=0.5;exitY=0;exitDx=0;exitDy=0;entryX=0.5;entryY=1;entryDx=0;entryDy=0;" edge="1" parent="1" source="4gGjTpzzvBJ2QWFjTk4x-100" target="4gGjTpzzvBJ2QWFjTk4x-250">
          <mxGeometry relative="1" as="geometry">
            <Array as="points">
              <mxPoint x="-1930" y="2793" />
              <mxPoint x="-3800" y="2793" />
              <mxPoint x="-3800" y="2334" />
            </Array>
            <mxPoint x="203.89999999999998" y="3128" as="sourcePoint" />
            <mxPoint x="-2810" y="2440" as="targetPoint" />
          </mxGeometry>
        </mxCell>
        <mxCell id="J2Ls83ueX8J15JTTdsfE-18" value="" style="swimlane;startSize=0;container=0;strokeWidth=3;fillStyle=zigzag-line;" vertex="1" parent="1">
          <mxGeometry x="-1655" y="2878" width="240" height="274.07" as="geometry" />
        </mxCell>
        <mxCell id="J2Ls83ueX8J15JTTdsfE-19" value="SelectClient&lt;br&gt;ViewModel" style="text;strokeColor=none;fillColor=none;html=1;fontSize=35;fontStyle=1;verticalAlign=middle;align=center;strokeWidth=3;container=0;" vertex="1" parent="1">
          <mxGeometry x="-1586" y="2995.04" width="100" height="40" as="geometry" />
        </mxCell>
        <mxCell id="J2Ls83ueX8J15JTTdsfE-29" style="edgeStyle=orthogonalEdgeStyle;rounded=0;orthogonalLoop=1;jettySize=auto;html=1;entryX=0.5;entryY=0;entryDx=0;entryDy=0;strokeWidth=3;endSize=10;exitX=0.5;exitY=1;exitDx=0;exitDy=0;" edge="1" parent="1" source="J2Ls83ueX8J15JTTdsfE-21" target="J2Ls83ueX8J15JTTdsfE-18">
          <mxGeometry relative="1" as="geometry">
            <mxPoint x="-1910" y="2659.93" as="sourcePoint" />
            <mxPoint x="-1510" y="2740.93" as="targetPoint" />
          </mxGeometry>
        </mxCell>
        <mxCell id="J2Ls83ueX8J15JTTdsfE-32" value="" style="group" vertex="1" connectable="0" parent="1">
          <mxGeometry x="-3030" y="2008" width="670" height="330" as="geometry" />
        </mxCell>
        <mxCell id="J2Ls83ueX8J15JTTdsfE-21" value="" style="rounded=0;whiteSpace=wrap;html=1;glass=0;strokeColor=default;dashed=1;dashPattern=8 8;strokeWidth=2;shadow=0;container=0;" vertex="1" parent="J2Ls83ueX8J15JTTdsfE-32">
          <mxGeometry width="670" height="330" as="geometry" />
        </mxCell>
        <mxCell id="J2Ls83ueX8J15JTTdsfE-25" value="" style="ellipse;whiteSpace=wrap;html=1;aspect=fixed;strokeWidth=3;fontSize=48;container=0;fillColor=#dae8fc;strokeColor=#6c8ebf;" vertex="1" parent="J2Ls83ueX8J15JTTdsfE-32">
          <mxGeometry width="330" height="330" as="geometry" />
        </mxCell>
        <mxCell id="J2Ls83ueX8J15JTTdsfE-26" value="Search&lt;br&gt;Client" style="text;strokeColor=none;fillColor=none;html=1;fontSize=35;fontStyle=1;verticalAlign=middle;align=center;strokeWidth=3;fontColor=#000000000;container=0;" vertex="1" parent="J2Ls83ueX8J15JTTdsfE-32">
          <mxGeometry x="115" y="145" width="100" height="40" as="geometry" />
        </mxCell>
        <mxCell id="J2Ls83ueX8J15JTTdsfE-27" value="" style="ellipse;whiteSpace=wrap;html=1;aspect=fixed;strokeWidth=3;fontSize=48;container=0;fillColor=#dae8fc;strokeColor=#6c8ebf;" vertex="1" parent="J2Ls83ueX8J15JTTdsfE-32">
          <mxGeometry x="330" width="330" height="330" as="geometry" />
        </mxCell>
        <mxCell id="J2Ls83ueX8J15JTTdsfE-28" value="VK, TG, Insta, &lt;br&gt;WhsApp&lt;br&gt;Phone" style="text;strokeColor=none;fillColor=none;html=1;fontSize=35;fontStyle=1;verticalAlign=middle;align=center;strokeWidth=3;fontColor=#000000000;container=0;" vertex="1" parent="J2Ls83ueX8J15JTTdsfE-32">
          <mxGeometry x="445" y="145" width="100" height="40" as="geometry" />
        </mxCell>
        <mxCell id="J2Ls83ueX8J15JTTdsfE-33" value="" style="swimlane;startSize=0;container=0;strokeWidth=3;fillStyle=zigzag-line;" vertex="1" parent="1">
          <mxGeometry x="-1310" y="2878" width="320" height="274.07" as="geometry" />
        </mxCell>
        <mxCell id="J2Ls83ueX8J15JTTdsfE-34" value="SelectProcedure&lt;br&gt;ViewModel" style="text;strokeColor=none;fillColor=none;html=1;fontSize=35;fontStyle=1;verticalAlign=middle;align=center;strokeWidth=3;container=0;" vertex="1" parent="J2Ls83ueX8J15JTTdsfE-33">
          <mxGeometry x="110" y="124.03999999999996" width="100" height="40" as="geometry" />
        </mxCell>
        <mxCell id="J2Ls83ueX8J15JTTdsfE-35" style="edgeStyle=orthogonalEdgeStyle;rounded=0;orthogonalLoop=1;jettySize=auto;html=1;entryX=0.5;entryY=0;entryDx=0;entryDy=0;strokeWidth=3;endSize=10;exitX=0.5;exitY=1;exitDx=0;exitDy=0;" edge="1" parent="1" source="J2Ls83ueX8J15JTTdsfE-18" target="4gGjTpzzvBJ2QWFjTk4x-103">
          <mxGeometry relative="1" as="geometry">
            <mxPoint x="-780" y="3009.93" as="sourcePoint" />
            <mxPoint x="-380" y="3090.93" as="targetPoint" />
          </mxGeometry>
        </mxCell>
        <mxCell id="J2Ls83ueX8J15JTTdsfE-36" style="edgeStyle=orthogonalEdgeStyle;rounded=0;orthogonalLoop=1;jettySize=auto;html=1;entryX=0.5;entryY=0;entryDx=0;entryDy=0;strokeWidth=3;endSize=10;exitX=0.5;exitY=1;exitDx=0;exitDy=0;" edge="1" parent="1" source="J2Ls83ueX8J15JTTdsfE-33" target="4gGjTpzzvBJ2QWFjTk4x-103">
          <mxGeometry relative="1" as="geometry">
            <mxPoint x="-1154.5" y="3179.93" as="sourcePoint" />
            <mxPoint x="-754.5" y="3260.93" as="targetPoint" />
          </mxGeometry>
        </mxCell>
        <mxCell id="J2Ls83ueX8J15JTTdsfE-43" style="edgeStyle=orthogonalEdgeStyle;rounded=0;orthogonalLoop=1;jettySize=auto;html=1;entryX=0.5;entryY=0;entryDx=0;entryDy=0;strokeWidth=3;endSize=10;exitX=0.5;exitY=1;exitDx=0;exitDy=0;" edge="1" parent="1" source="J2Ls83ueX8J15JTTdsfE-39" target="J2Ls83ueX8J15JTTdsfE-33">
          <mxGeometry relative="1" as="geometry">
            <mxPoint x="-1260" y="2390" as="sourcePoint" />
            <mxPoint x="-650" y="2934" as="targetPoint" />
            <Array as="points">
              <mxPoint x="-1925" y="2470" />
              <mxPoint x="-1150" y="2470" />
            </Array>
          </mxGeometry>
        </mxCell>
        <mxCell id="J2Ls83ueX8J15JTTdsfE-44" value="" style="group" vertex="1" connectable="0" parent="1">
          <mxGeometry x="-1570" y="1390" width="1020" height="334" as="geometry" />
        </mxCell>
        <mxCell id="J2Ls83ueX8J15JTTdsfE-45" value="" style="rounded=0;whiteSpace=wrap;html=1;glass=0;strokeColor=default;dashed=1;dashPattern=8 8;strokeWidth=2;shadow=0;" vertex="1" parent="J2Ls83ueX8J15JTTdsfE-44">
          <mxGeometry width="1000" height="330" as="geometry" />
        </mxCell>
        <mxCell id="J2Ls83ueX8J15JTTdsfE-46" value="" style="ellipse;whiteSpace=wrap;html=1;aspect=fixed;strokeWidth=3;fontSize=48;container=0;fillColor=#fff2cc;strokeColor=#d6b656;" vertex="1" parent="J2Ls83ueX8J15JTTdsfE-44">
          <mxGeometry y="4" width="330" height="330" as="geometry" />
        </mxCell>
        <mxCell id="J2Ls83ueX8J15JTTdsfE-47" value="" style="group" vertex="1" connectable="0" parent="J2Ls83ueX8J15JTTdsfE-44">
          <mxGeometry width="330" height="330" as="geometry" />
        </mxCell>
        <mxCell id="J2Ls83ueX8J15JTTdsfE-48" value="LoadShortDate" style="text;strokeColor=none;fillColor=none;html=1;fontSize=35;fontStyle=1;verticalAlign=middle;align=center;strokeWidth=3;fontColor=#000000000;container=0;" vertex="1" parent="J2Ls83ueX8J15JTTdsfE-47">
          <mxGeometry x="117" y="145" width="100" height="40" as="geometry" />
        </mxCell>
        <mxCell id="J2Ls83ueX8J15JTTdsfE-49" value="" style="ellipse;whiteSpace=wrap;html=1;aspect=fixed;strokeWidth=3;fontSize=48;container=0;fillColor=#fff2cc;strokeColor=#d6b656;" vertex="1" parent="J2Ls83ueX8J15JTTdsfE-44">
          <mxGeometry x="330" width="330" height="330" as="geometry" />
        </mxCell>
        <mxCell id="J2Ls83ueX8J15JTTdsfE-50" value="GetDate&lt;br&gt;Appointments" style="text;strokeColor=none;fillColor=none;html=1;fontSize=35;fontStyle=1;verticalAlign=middle;align=center;strokeWidth=3;fontColor=#000000000;container=0;" vertex="1" parent="J2Ls83ueX8J15JTTdsfE-44">
          <mxGeometry x="445" y="145" width="100" height="40" as="geometry" />
        </mxCell>
        <mxCell id="J2Ls83ueX8J15JTTdsfE-51" value="" style="ellipse;whiteSpace=wrap;html=1;aspect=fixed;strokeWidth=3;fontSize=48;container=0;fillColor=#fff2cc;strokeColor=#d6b656;" vertex="1" parent="J2Ls83ueX8J15JTTdsfE-44">
          <mxGeometry x="660" width="330" height="330" as="geometry" />
        </mxCell>
        <mxCell id="J2Ls83ueX8J15JTTdsfE-52" value="SetSelectedMonth" style="text;strokeColor=none;fillColor=none;html=1;fontSize=35;fontStyle=1;verticalAlign=middle;align=center;strokeWidth=3;fontColor=#000000000;container=0;" vertex="1" parent="J2Ls83ueX8J15JTTdsfE-44">
          <mxGeometry x="775" y="145" width="100" height="40" as="geometry" />
        </mxCell>
        <mxCell id="J2Ls83ueX8J15JTTdsfE-53" style="edgeStyle=orthogonalEdgeStyle;rounded=0;orthogonalLoop=1;jettySize=auto;html=1;entryX=0.5;entryY=0;entryDx=0;entryDy=0;strokeWidth=3;endSize=10;exitX=0.5;exitY=1;exitDx=0;exitDy=0;" edge="1" parent="1" source="J2Ls83ueX8J15JTTdsfE-49" target="4gGjTpzzvBJ2QWFjTk4x-31">
          <mxGeometry relative="1" as="geometry">
            <mxPoint x="160" y="2536.04" as="sourcePoint" />
            <mxPoint x="315" y="3080.04" as="targetPoint" />
            <Array as="points">
              <mxPoint x="-1075" y="2450" />
              <mxPoint x="-257" y="2450" />
            </Array>
          </mxGeometry>
        </mxCell>
        <mxCell id="J2Ls83ueX8J15JTTdsfE-54" value="" style="swimlane;startSize=0;container=0;strokeWidth=3;" vertex="1" parent="1">
          <mxGeometry x="-30" y="2890" width="290" height="274.07" as="geometry" />
        </mxCell>
        <mxCell id="J2Ls83ueX8J15JTTdsfE-55" value="ListMonth&lt;br&gt;ViewModel" style="text;strokeColor=none;fillColor=none;html=1;fontSize=35;fontStyle=1;verticalAlign=middle;align=center;strokeWidth=3;container=0;" vertex="1" parent="J2Ls83ueX8J15JTTdsfE-54">
          <mxGeometry x="95" y="105.02999999999996" width="100" height="40" as="geometry" />
        </mxCell>
        <mxCell id="J2Ls83ueX8J15JTTdsfE-56" value="" style="group" vertex="1" connectable="0" parent="1">
          <mxGeometry x="-990" y="1950" width="2020" height="334" as="geometry" />
        </mxCell>
        <mxCell id="J2Ls83ueX8J15JTTdsfE-57" value="" style="rounded=0;whiteSpace=wrap;html=1;glass=0;strokeColor=default;dashed=1;dashPattern=8 8;strokeWidth=2;shadow=0;" vertex="1" parent="J2Ls83ueX8J15JTTdsfE-56">
          <mxGeometry width="1980" height="330" as="geometry" />
        </mxCell>
        <mxCell id="J2Ls83ueX8J15JTTdsfE-58" value="" style="ellipse;whiteSpace=wrap;html=1;aspect=fixed;strokeWidth=3;fontSize=48;container=0;fillColor=#fff2cc;strokeColor=#d6b656;" vertex="1" parent="J2Ls83ueX8J15JTTdsfE-56">
          <mxGeometry y="4" width="330" height="330" as="geometry" />
        </mxCell>
        <mxCell id="J2Ls83ueX8J15JTTdsfE-59" value="" style="group" vertex="1" connectable="0" parent="J2Ls83ueX8J15JTTdsfE-56">
          <mxGeometry width="330" height="330" as="geometry" />
        </mxCell>
        <mxCell id="J2Ls83ueX8J15JTTdsfE-60" value="Insert&lt;br&gt;Appointment" style="text;strokeColor=none;fillColor=none;html=1;fontSize=35;fontStyle=1;verticalAlign=middle;align=center;strokeWidth=3;fontColor=#000000000;container=0;" vertex="1" parent="J2Ls83ueX8J15JTTdsfE-59">
          <mxGeometry x="117" y="145" width="100" height="40" as="geometry" />
        </mxCell>
        <mxCell id="J2Ls83ueX8J15JTTdsfE-61" value="" style="ellipse;whiteSpace=wrap;html=1;aspect=fixed;strokeWidth=3;fontSize=48;container=0;fillColor=#fff2cc;strokeColor=#d6b656;" vertex="1" parent="J2Ls83ueX8J15JTTdsfE-56">
          <mxGeometry x="330" width="330" height="330" as="geometry" />
        </mxCell>
        <mxCell id="J2Ls83ueX8J15JTTdsfE-62" value="Delete&lt;br&gt;Appointment" style="text;strokeColor=none;fillColor=none;html=1;fontSize=35;fontStyle=1;verticalAlign=middle;align=center;strokeWidth=3;fontColor=#000000000;container=0;" vertex="1" parent="J2Ls83ueX8J15JTTdsfE-56">
          <mxGeometry x="445" y="145" width="100" height="40" as="geometry" />
        </mxCell>
        <mxCell id="J2Ls83ueX8J15JTTdsfE-63" value="" style="ellipse;whiteSpace=wrap;html=1;aspect=fixed;strokeWidth=3;fontSize=48;container=0;fillColor=#fff2cc;strokeColor=#d6b656;" vertex="1" parent="J2Ls83ueX8J15JTTdsfE-56">
          <mxGeometry x="660" width="330" height="330" as="geometry" />
        </mxCell>
        <mxCell id="J2Ls83ueX8J15JTTdsfE-64" value="GetDate&lt;br&gt;Appointment" style="text;strokeColor=none;fillColor=none;html=1;fontSize=35;fontStyle=1;verticalAlign=middle;align=center;strokeWidth=3;fontColor=#000000000;container=0;" vertex="1" parent="J2Ls83ueX8J15JTTdsfE-56">
          <mxGeometry x="775" y="145" width="100" height="40" as="geometry" />
        </mxCell>
        <mxCell id="J2Ls83ueX8J15JTTdsfE-74" value="GetDate&lt;br&gt;Appointment" style="text;strokeColor=none;fillColor=none;html=1;fontSize=35;fontStyle=1;verticalAlign=middle;align=center;strokeWidth=3;fontColor=#000000000;container=0;" vertex="1" parent="J2Ls83ueX8J15JTTdsfE-56">
          <mxGeometry x="1105" y="147" width="100" height="40" as="geometry" />
        </mxCell>
        <mxCell id="J2Ls83ueX8J15JTTdsfE-75" value="" style="ellipse;whiteSpace=wrap;html=1;aspect=fixed;strokeWidth=3;fontSize=48;container=0;fillColor=#fff2cc;strokeColor=#d6b656;" vertex="1" parent="J2Ls83ueX8J15JTTdsfE-56">
          <mxGeometry x="990" y="2" width="330" height="330" as="geometry" />
        </mxCell>
        <mxCell id="J2Ls83ueX8J15JTTdsfE-76" value="SetSelectedMonth" style="text;strokeColor=none;fillColor=none;html=1;fontSize=35;fontStyle=1;verticalAlign=middle;align=center;strokeWidth=3;fontColor=#000000000;container=0;" vertex="1" parent="J2Ls83ueX8J15JTTdsfE-56">
          <mxGeometry x="1105" y="140" width="100" height="40" as="geometry" />
        </mxCell>
        <mxCell id="J2Ls83ueX8J15JTTdsfE-77" value="" style="ellipse;whiteSpace=wrap;html=1;aspect=fixed;strokeWidth=3;fontSize=48;container=0;fillColor=#fff2cc;strokeColor=#d6b656;" vertex="1" parent="J2Ls83ueX8J15JTTdsfE-56">
          <mxGeometry x="1320" y="4" width="330" height="330" as="geometry" />
        </mxCell>
        <mxCell id="J2Ls83ueX8J15JTTdsfE-78" value="GetSelectedMonth" style="text;strokeColor=none;fillColor=none;html=1;fontSize=35;fontStyle=1;verticalAlign=middle;align=center;strokeWidth=3;fontColor=#000000000;container=0;" vertex="1" parent="J2Ls83ueX8J15JTTdsfE-56">
          <mxGeometry x="1435" y="142" width="100" height="40" as="geometry" />
        </mxCell>
        <mxCell id="J2Ls83ueX8J15JTTdsfE-83" value="" style="ellipse;whiteSpace=wrap;html=1;aspect=fixed;strokeWidth=3;fontSize=48;container=0;fillColor=#fff2cc;strokeColor=#d6b656;" vertex="1" parent="J2Ls83ueX8J15JTTdsfE-56">
          <mxGeometry x="1650" y="4" width="330" height="330" as="geometry" />
        </mxCell>
        <mxCell id="J2Ls83ueX8J15JTTdsfE-84" value="VK, TG, Insta, &lt;br&gt;WhsApp&lt;br&gt;Phone" style="text;strokeColor=none;fillColor=none;html=1;fontSize=35;fontStyle=1;verticalAlign=middle;align=center;strokeWidth=3;fontColor=#000000000;container=0;" vertex="1" parent="J2Ls83ueX8J15JTTdsfE-56">
          <mxGeometry x="1765" y="149" width="100" height="40" as="geometry" />
        </mxCell>
        <mxCell id="J2Ls83ueX8J15JTTdsfE-38" value="" style="rounded=0;whiteSpace=wrap;html=1;glass=0;strokeColor=default;dashed=1;dashPattern=8 8;strokeWidth=2;shadow=0;container=0;" vertex="1" parent="1">
          <mxGeometry x="-2090" y="2000" width="330" height="330" as="geometry" />
        </mxCell>
        <mxCell id="J2Ls83ueX8J15JTTdsfE-39" value="" style="ellipse;whiteSpace=wrap;html=1;aspect=fixed;strokeWidth=3;fontSize=48;container=0;fillColor=#dae8fc;strokeColor=#6c8ebf;" vertex="1" parent="1">
          <mxGeometry x="-2090" y="2000" width="330" height="330" as="geometry" />
        </mxCell>
        <mxCell id="J2Ls83ueX8J15JTTdsfE-40" value="Search&lt;br&gt;Procedure" style="text;strokeColor=none;fillColor=none;html=1;fontSize=35;fontStyle=1;verticalAlign=middle;align=center;strokeWidth=3;fontColor=#000000000;container=0;" vertex="1" parent="1">
          <mxGeometry x="-1975" y="2145" width="100" height="40" as="geometry" />
        </mxCell>
        <mxCell id="J2Ls83ueX8J15JTTdsfE-85" style="edgeStyle=orthogonalEdgeStyle;rounded=0;orthogonalLoop=1;jettySize=auto;html=1;entryX=0.5;entryY=0;entryDx=0;entryDy=0;strokeWidth=3;endSize=10;exitX=0.5;exitY=1;exitDx=0;exitDy=0;" edge="1" parent="1" source="J2Ls83ueX8J15JTTdsfE-57" target="J2Ls83ueX8J15JTTdsfE-54">
          <mxGeometry relative="1" as="geometry">
            <mxPoint x="180" y="2170" as="sourcePoint" />
            <mxPoint x="778" y="3290" as="targetPoint" />
          </mxGeometry>
        </mxCell>
        <mxCell id="J2Ls83ueX8J15JTTdsfE-86" style="edgeStyle=orthogonalEdgeStyle;rounded=0;orthogonalLoop=1;jettySize=auto;html=1;entryX=0.5;entryY=0;entryDx=0;entryDy=0;strokeWidth=3;endSize=10;exitX=0.5;exitY=1;exitDx=0;exitDy=0;" edge="1" parent="1" source="J2Ls83ueX8J15JTTdsfE-54" target="4gGjTpzzvBJ2QWFjTk4x-44">
          <mxGeometry relative="1" as="geometry">
            <mxPoint x="400" y="3259.93" as="sourcePoint" />
            <mxPoint x="623" y="3340.93" as="targetPoint" />
          </mxGeometry>
        </mxCell>
        <mxCell id="J2Ls83ueX8J15JTTdsfE-87" style="edgeStyle=orthogonalEdgeStyle;rounded=0;orthogonalLoop=1;jettySize=auto;html=1;fontSize=48;strokeWidth=3;endSize=10;entryX=0.5;entryY=1;entryDx=0;entryDy=0;exitX=0.5;exitY=0;exitDx=0;exitDy=0;" edge="1" parent="1" source="4gGjTpzzvBJ2QWFjTk4x-163" target="4gGjTpzzvBJ2QWFjTk4x-284">
          <mxGeometry relative="1" as="geometry">
            <mxPoint x="1652" y="3152.07" as="targetPoint" />
            <mxPoint x="1652" y="3477.07" as="sourcePoint" />
          </mxGeometry>
        </mxCell>
        <mxCell id="J2Ls83ueX8J15JTTdsfE-88" value="" style="group" vertex="1" connectable="0" parent="1">
          <mxGeometry x="-2980" y="650" width="399" height="184.99999999999994" as="geometry" />
        </mxCell>
        <mxCell id="J2Ls83ueX8J15JTTdsfE-89" value="Clients&lt;br&gt;repository - Interface" style="text;strokeColor=none;fillColor=none;html=1;fontSize=35;fontStyle=1;verticalAlign=middle;align=center;strokeWidth=3;container=0;" vertex="1" parent="J2Ls83ueX8J15JTTdsfE-88">
          <mxGeometry x="90.25" y="79.00199999999995" width="199.5" height="26.999999999999993" as="geometry" />
        </mxCell>
        <mxCell id="J2Ls83ueX8J15JTTdsfE-90" value="" style="swimlane;startSize=0;container=0;strokeWidth=3;" vertex="1" parent="J2Ls83ueX8J15JTTdsfE-88">
          <mxGeometry width="399" height="184.99999999999994" as="geometry" />
        </mxCell>
        <mxCell id="J2Ls83ueX8J15JTTdsfE-91" style="edgeStyle=orthogonalEdgeStyle;rounded=0;orthogonalLoop=1;jettySize=auto;html=1;startSize=6;strokeWidth=3;endSize=10;exitX=0.5;exitY=1;exitDx=0;exitDy=0;entryX=0.5;entryY=0;entryDx=0;entryDy=0;" edge="1" parent="1" source="J2Ls83ueX8J15JTTdsfE-90" target="J2Ls83ueX8J15JTTdsfE-25">
          <mxGeometry relative="1" as="geometry">
            <mxPoint x="-2939.44" y="2043" as="targetPoint" />
            <mxPoint x="-2940.44" y="1410" as="sourcePoint" />
          </mxGeometry>
        </mxCell>
        <mxCell id="J2Ls83ueX8J15JTTdsfE-92" value="" style="group" vertex="1" connectable="0" parent="1">
          <mxGeometry x="-2209" y="650" width="399" height="184.99999999999994" as="geometry" />
        </mxCell>
        <mxCell id="J2Ls83ueX8J15JTTdsfE-93" value="Procedure&lt;br&gt;repository - Interface" style="text;strokeColor=none;fillColor=none;html=1;fontSize=35;fontStyle=1;verticalAlign=middle;align=center;strokeWidth=3;container=0;" vertex="1" parent="J2Ls83ueX8J15JTTdsfE-92">
          <mxGeometry x="90.25" y="79.00199999999995" width="199.5" height="26.999999999999993" as="geometry" />
        </mxCell>
        <mxCell id="J2Ls83ueX8J15JTTdsfE-94" value="" style="swimlane;startSize=0;container=0;strokeWidth=3;" vertex="1" parent="J2Ls83ueX8J15JTTdsfE-92">
          <mxGeometry width="399" height="184.99999999999994" as="geometry" />
        </mxCell>
        <mxCell id="J2Ls83ueX8J15JTTdsfE-95" style="edgeStyle=orthogonalEdgeStyle;rounded=0;orthogonalLoop=1;jettySize=auto;html=1;startSize=6;strokeWidth=3;endSize=10;exitX=0.5;exitY=1;exitDx=0;exitDy=0;entryX=0.5;entryY=0;entryDx=0;entryDy=0;" edge="1" parent="1" source="J2Ls83ueX8J15JTTdsfE-94" target="J2Ls83ueX8J15JTTdsfE-39">
          <mxGeometry relative="1" as="geometry">
            <mxPoint x="-2240" y="2093" as="targetPoint" />
            <mxPoint x="-2174" y="1440" as="sourcePoint" />
          </mxGeometry>
        </mxCell>
        <mxCell id="J2Ls83ueX8J15JTTdsfE-96" value="/" style="swimlane;startSize=0;container=0;strokeWidth=3;" vertex="1" parent="1">
          <mxGeometry x="-1586" y="630" width="398" height="184.99999999999994" as="geometry" />
        </mxCell>
        <mxCell id="J2Ls83ueX8J15JTTdsfE-97" value="Schedule&lt;br&gt;repository - Interface" style="text;strokeColor=none;fillColor=none;html=1;fontSize=35;fontStyle=1;verticalAlign=middle;align=center;strokeWidth=3;container=0;" vertex="1" parent="J2Ls83ueX8J15JTTdsfE-96">
          <mxGeometry x="99.25" y="79.00199999999995" width="199.5" height="26.999999999999993" as="geometry" />
        </mxCell>
        <mxCell id="J2Ls83ueX8J15JTTdsfE-98" style="edgeStyle=orthogonalEdgeStyle;rounded=0;orthogonalLoop=1;jettySize=auto;html=1;startSize=6;strokeWidth=3;endSize=10;exitX=0.5;exitY=1;exitDx=0;exitDy=0;" edge="1" parent="1" source="J2Ls83ueX8J15JTTdsfE-96">
          <mxGeometry relative="1" as="geometry">
            <mxPoint x="-1410" y="1410" as="targetPoint" />
            <mxPoint x="-1670" y="955.5" as="sourcePoint" />
            <Array as="points">
              <mxPoint x="-1387" y="1100" />
              <mxPoint x="-1410" y="1100" />
            </Array>
          </mxGeometry>
        </mxCell>
        <mxCell id="J2Ls83ueX8J15JTTdsfE-99" style="edgeStyle=orthogonalEdgeStyle;rounded=0;orthogonalLoop=1;jettySize=auto;html=1;startSize=6;strokeWidth=3;endSize=10;exitX=0.5;exitY=1;exitDx=0;exitDy=0;entryX=0.5;entryY=0;entryDx=0;entryDy=0;" edge="1" parent="1" source="J2Ls83ueX8J15JTTdsfE-96" target="J2Ls83ueX8J15JTTdsfE-49">
          <mxGeometry relative="1" as="geometry">
            <mxPoint x="-1170" y="1465" as="targetPoint" />
            <mxPoint x="-1147" y="870" as="sourcePoint" />
          </mxGeometry>
        </mxCell>
        <mxCell id="J2Ls83ueX8J15JTTdsfE-100" style="edgeStyle=orthogonalEdgeStyle;rounded=0;orthogonalLoop=1;jettySize=auto;html=1;startSize=6;strokeWidth=3;endSize=10;exitX=0.5;exitY=1;exitDx=0;exitDy=0;entryX=0.5;entryY=0;entryDx=0;entryDy=0;" edge="1" parent="1" source="r7-e_KJdZXoIzfTeK7qY-51" target="J2Ls83ueX8J15JTTdsfE-51">
          <mxGeometry relative="1" as="geometry">
            <mxPoint x="-458" y="1390" as="targetPoint" />
            <mxPoint x="-770" y="815" as="sourcePoint" />
          </mxGeometry>
        </mxCell>
        <mxCell id="J2Ls83ueX8J15JTTdsfE-101" style="edgeStyle=orthogonalEdgeStyle;rounded=0;orthogonalLoop=1;jettySize=auto;html=1;startSize=6;strokeWidth=3;endSize=10;exitX=0.5;exitY=1;exitDx=0;exitDy=0;entryX=0.5;entryY=0;entryDx=0;entryDy=0;" edge="1" parent="1" source="g3TXEs6j1-RWAtcXsQVe-15" target="J2Ls83ueX8J15JTTdsfE-58">
          <mxGeometry relative="1" as="geometry">
            <mxPoint x="-114" y="1575" as="targetPoint" />
            <mxPoint x="-120" y="1010" as="sourcePoint" />
            <Array as="points">
              <mxPoint x="20" y="1870" />
              <mxPoint x="-825" y="1870" />
            </Array>
          </mxGeometry>
        </mxCell>
        <mxCell id="J2Ls83ueX8J15JTTdsfE-102" style="edgeStyle=orthogonalEdgeStyle;rounded=0;orthogonalLoop=1;jettySize=auto;html=1;startSize=6;strokeWidth=3;endSize=10;exitX=0.5;exitY=1;exitDx=0;exitDy=0;entryX=0.5;entryY=0;entryDx=0;entryDy=0;" edge="1" parent="1" source="g3TXEs6j1-RWAtcXsQVe-15" target="J2Ls83ueX8J15JTTdsfE-61">
          <mxGeometry relative="1" as="geometry">
            <mxPoint x="-900" y="1954" as="targetPoint" />
            <mxPoint x="-55" y="835" as="sourcePoint" />
            <Array as="points">
              <mxPoint x="20" y="1870" />
              <mxPoint x="-495" y="1870" />
            </Array>
          </mxGeometry>
        </mxCell>
        <mxCell id="J2Ls83ueX8J15JTTdsfE-103" style="edgeStyle=orthogonalEdgeStyle;rounded=0;orthogonalLoop=1;jettySize=auto;html=1;startSize=6;strokeWidth=3;endSize=10;exitX=0.5;exitY=1;exitDx=0;exitDy=0;entryX=0.5;entryY=0;entryDx=0;entryDy=0;" edge="1" parent="1" source="g3TXEs6j1-RWAtcXsQVe-15" target="J2Ls83ueX8J15JTTdsfE-63">
          <mxGeometry relative="1" as="geometry">
            <mxPoint x="-170" y="1955" as="targetPoint" />
            <mxPoint x="345" y="840" as="sourcePoint" />
            <Array as="points">
              <mxPoint x="20" y="1870" />
              <mxPoint x="-165" y="1870" />
            </Array>
          </mxGeometry>
        </mxCell>
        <mxCell id="J2Ls83ueX8J15JTTdsfE-104" value="/" style="swimlane;startSize=0;container=0;strokeWidth=3;" vertex="1" parent="1">
          <mxGeometry x="340" y="640" width="398" height="184.99999999999994" as="geometry" />
        </mxCell>
        <mxCell id="J2Ls83ueX8J15JTTdsfE-105" value="Settings &lt;br&gt;repository - Interface" style="text;strokeColor=none;fillColor=none;html=1;fontSize=35;fontStyle=1;verticalAlign=middle;align=center;strokeWidth=3;container=0;" vertex="1" parent="J2Ls83ueX8J15JTTdsfE-104">
          <mxGeometry x="99.25" y="79.00199999999995" width="199.5" height="26.999999999999993" as="geometry" />
        </mxCell>
        <mxCell id="J2Ls83ueX8J15JTTdsfE-106" style="edgeStyle=orthogonalEdgeStyle;rounded=0;orthogonalLoop=1;jettySize=auto;html=1;startSize=6;strokeWidth=3;endSize=10;exitX=0.5;exitY=1;exitDx=0;exitDy=0;entryX=0.5;entryY=0;entryDx=0;entryDy=0;" edge="1" parent="1" source="J2Ls83ueX8J15JTTdsfE-104" target="J2Ls83ueX8J15JTTdsfE-75">
          <mxGeometry relative="1" as="geometry">
            <mxPoint x="476" y="1545" as="targetPoint" />
            <mxPoint x="470" y="980" as="sourcePoint" />
            <Array as="points">
              <mxPoint x="539" y="1860" />
              <mxPoint x="165" y="1860" />
            </Array>
          </mxGeometry>
        </mxCell>
        <mxCell id="J2Ls83ueX8J15JTTdsfE-107" style="edgeStyle=orthogonalEdgeStyle;rounded=0;orthogonalLoop=1;jettySize=auto;html=1;startSize=6;strokeWidth=3;endSize=10;exitX=0.5;exitY=1;exitDx=0;exitDy=0;entryX=0.5;entryY=0;entryDx=0;entryDy=0;" edge="1" parent="1" source="J2Ls83ueX8J15JTTdsfE-104" target="J2Ls83ueX8J15JTTdsfE-77">
          <mxGeometry relative="1" as="geometry">
            <mxPoint x="750" y="1937" as="targetPoint" />
            <mxPoint x="1124" y="810" as="sourcePoint" />
            <Array as="points">
              <mxPoint x="539" y="1860" />
              <mxPoint x="495" y="1860" />
            </Array>
          </mxGeometry>
        </mxCell>
        <mxCell id="J2Ls83ueX8J15JTTdsfE-108" value="" style="swimlane;startSize=0;container=0;strokeWidth=3;" vertex="1" parent="1">
          <mxGeometry x="1550" y="2844.86" width="200" height="274.0740740740741" as="geometry" />
        </mxCell>
        <mxCell id="J2Ls83ueX8J15JTTdsfE-109" value="ClientEdit&lt;br style=&quot;font-size: 35px;&quot;&gt;ViewModel" style="text;strokeColor=none;fillColor=none;html=1;fontSize=35;fontStyle=1;verticalAlign=middle;align=center;strokeWidth=3;container=0;" vertex="1" parent="1">
          <mxGeometry x="1600" y="2961.9" width="100" height="40" as="geometry" />
        </mxCell>
        <mxCell id="J2Ls83ueX8J15JTTdsfE-110" style="edgeStyle=orthogonalEdgeStyle;rounded=0;orthogonalLoop=1;jettySize=auto;html=1;entryX=0.5;entryY=0;entryDx=0;entryDy=0;strokeWidth=3;endSize=10;exitX=0.5;exitY=1;exitDx=0;exitDy=0;" edge="1" parent="1" source="J2Ls83ueX8J15JTTdsfE-108" target="4gGjTpzzvBJ2QWFjTk4x-284">
          <mxGeometry relative="1" as="geometry">
            <mxPoint x="1280" y="3049.93" as="sourcePoint" />
            <mxPoint x="1537" y="3130.93" as="targetPoint" />
            <Array as="points">
              <mxPoint x="1650" y="3170" />
              <mxPoint x="1444" y="3170" />
            </Array>
          </mxGeometry>
        </mxCell>
        <mxCell id="J2Ls83ueX8J15JTTdsfE-147" value="" style="group" vertex="1" connectable="0" parent="1">
          <mxGeometry x="900" y="1367" width="1370" height="334" as="geometry" />
        </mxCell>
        <mxCell id="J2Ls83ueX8J15JTTdsfE-148" value="" style="rounded=0;whiteSpace=wrap;html=1;glass=0;strokeColor=default;dashed=1;dashPattern=8 8;strokeWidth=2;shadow=0;" vertex="1" parent="J2Ls83ueX8J15JTTdsfE-147">
          <mxGeometry width="1330" height="330" as="geometry" />
        </mxCell>
        <mxCell id="J2Ls83ueX8J15JTTdsfE-149" value="" style="ellipse;whiteSpace=wrap;html=1;aspect=fixed;strokeWidth=3;fontSize=48;container=0;fillColor=#e1d5e7;strokeColor=#9673a6;" vertex="1" parent="J2Ls83ueX8J15JTTdsfE-147">
          <mxGeometry y="4" width="330" height="330" as="geometry" />
        </mxCell>
        <mxCell id="J2Ls83ueX8J15JTTdsfE-150" value="" style="group" vertex="1" connectable="0" parent="J2Ls83ueX8J15JTTdsfE-147">
          <mxGeometry width="330" height="330" as="geometry" />
        </mxCell>
        <mxCell id="J2Ls83ueX8J15JTTdsfE-151" value="&lt;font&gt;Insert&lt;br&gt;Client&lt;br&gt;&lt;/font&gt;" style="text;strokeColor=none;fillColor=none;html=1;fontSize=35;fontStyle=1;verticalAlign=middle;align=center;strokeWidth=3;fontColor=#000000000;container=0;" vertex="1" parent="J2Ls83ueX8J15JTTdsfE-150">
          <mxGeometry x="117" y="145" width="100" height="40" as="geometry" />
        </mxCell>
        <mxCell id="J2Ls83ueX8J15JTTdsfE-152" value="" style="ellipse;whiteSpace=wrap;html=1;aspect=fixed;strokeWidth=3;fontSize=48;container=0;fillColor=#e1d5e7;strokeColor=#9673a6;" vertex="1" parent="J2Ls83ueX8J15JTTdsfE-147">
          <mxGeometry x="330" width="330" height="330" as="geometry" />
        </mxCell>
        <mxCell id="J2Ls83ueX8J15JTTdsfE-153" value="&lt;font&gt;Update&lt;br&gt;Client&lt;br&gt;&lt;/font&gt;" style="text;strokeColor=none;fillColor=none;html=1;fontSize=35;fontStyle=1;verticalAlign=middle;align=center;strokeWidth=3;fontColor=#000000000;container=0;" vertex="1" parent="J2Ls83ueX8J15JTTdsfE-147">
          <mxGeometry x="445" y="145" width="100" height="40" as="geometry" />
        </mxCell>
        <mxCell id="J2Ls83ueX8J15JTTdsfE-154" value="" style="ellipse;whiteSpace=wrap;html=1;aspect=fixed;strokeWidth=3;fontSize=48;container=0;fillColor=#e1d5e7;strokeColor=#9673a6;" vertex="1" parent="J2Ls83ueX8J15JTTdsfE-147">
          <mxGeometry x="990" y="2" width="330" height="330" as="geometry" />
        </mxCell>
        <mxCell id="J2Ls83ueX8J15JTTdsfE-155" value="VK, TG, Insta, &lt;br&gt;WhsApp&lt;br&gt;Phone" style="text;strokeColor=none;fillColor=none;html=1;fontSize=35;fontStyle=1;verticalAlign=middle;align=center;strokeWidth=3;fontColor=#000000000;container=0;" vertex="1" parent="J2Ls83ueX8J15JTTdsfE-147">
          <mxGeometry x="1105" y="147" width="100" height="40" as="geometry" />
        </mxCell>
        <mxCell id="J2Ls83ueX8J15JTTdsfE-159" value="" style="ellipse;whiteSpace=wrap;html=1;aspect=fixed;strokeWidth=3;fontSize=48;container=0;fillColor=#e1d5e7;strokeColor=#9673a6;" vertex="1" parent="J2Ls83ueX8J15JTTdsfE-147">
          <mxGeometry x="660" width="330" height="330" as="geometry" />
        </mxCell>
        <mxCell id="J2Ls83ueX8J15JTTdsfE-160" value="&lt;font&gt;Search&lt;br&gt;Client&lt;br&gt;&lt;/font&gt;" style="text;strokeColor=none;fillColor=none;html=1;fontSize=35;fontStyle=1;verticalAlign=middle;align=center;strokeWidth=3;fontColor=#000000000;container=0;" vertex="1" parent="J2Ls83ueX8J15JTTdsfE-147">
          <mxGeometry x="775" y="145" width="100" height="40" as="geometry" />
        </mxCell>
        <mxCell id="J2Ls83ueX8J15JTTdsfE-162" style="edgeStyle=orthogonalEdgeStyle;rounded=0;orthogonalLoop=1;jettySize=auto;html=1;entryX=0.5;entryY=0;entryDx=0;entryDy=0;strokeWidth=3;endSize=10;exitX=0.5;exitY=1;exitDx=0;exitDy=0;" edge="1" parent="1" source="J2Ls83ueX8J15JTTdsfE-148" target="4gGjTpzzvBJ2QWFjTk4x-283">
          <mxGeometry relative="1" as="geometry">
            <mxPoint x="1457" y="1930" as="sourcePoint" />
            <mxPoint x="1572" y="2540" as="targetPoint" />
            <Array as="points">
              <mxPoint x="1565" y="1980" />
              <mxPoint x="1187" y="1980" />
            </Array>
          </mxGeometry>
        </mxCell>
        <mxCell id="J2Ls83ueX8J15JTTdsfE-169" value="" style="group" vertex="1" connectable="0" parent="1">
          <mxGeometry x="1654" y="2004" width="1370" height="334" as="geometry" />
        </mxCell>
        <mxCell id="J2Ls83ueX8J15JTTdsfE-170" value="" style="rounded=0;whiteSpace=wrap;html=1;glass=0;strokeColor=default;dashed=1;dashPattern=8 8;strokeWidth=2;shadow=0;" vertex="1" parent="J2Ls83ueX8J15JTTdsfE-169">
          <mxGeometry width="660" height="330" as="geometry" />
        </mxCell>
        <mxCell id="J2Ls83ueX8J15JTTdsfE-171" value="" style="ellipse;whiteSpace=wrap;html=1;aspect=fixed;strokeWidth=3;fontSize=48;container=0;fillColor=#e1d5e7;strokeColor=#9673a6;" vertex="1" parent="J2Ls83ueX8J15JTTdsfE-169">
          <mxGeometry y="4" width="330" height="330" as="geometry" />
        </mxCell>
        <mxCell id="J2Ls83ueX8J15JTTdsfE-172" value="" style="group" vertex="1" connectable="0" parent="J2Ls83ueX8J15JTTdsfE-169">
          <mxGeometry width="330" height="330" as="geometry" />
        </mxCell>
        <mxCell id="J2Ls83ueX8J15JTTdsfE-173" value="&lt;font&gt;Insert&lt;br&gt;Client&lt;br&gt;&lt;/font&gt;" style="text;strokeColor=none;fillColor=none;html=1;fontSize=35;fontStyle=1;verticalAlign=middle;align=center;strokeWidth=3;fontColor=#000000000;container=0;" vertex="1" parent="J2Ls83ueX8J15JTTdsfE-172">
          <mxGeometry x="117" y="145" width="100" height="40" as="geometry" />
        </mxCell>
        <mxCell id="J2Ls83ueX8J15JTTdsfE-174" value="" style="ellipse;whiteSpace=wrap;html=1;aspect=fixed;strokeWidth=3;fontSize=48;container=0;fillColor=#e1d5e7;strokeColor=#9673a6;" vertex="1" parent="J2Ls83ueX8J15JTTdsfE-169">
          <mxGeometry x="330" width="330" height="330" as="geometry" />
        </mxCell>
        <mxCell id="J2Ls83ueX8J15JTTdsfE-175" value="&lt;font&gt;Update&lt;br&gt;Client&lt;br&gt;&lt;/font&gt;" style="text;strokeColor=none;fillColor=none;html=1;fontSize=35;fontStyle=1;verticalAlign=middle;align=center;strokeWidth=3;fontColor=#000000000;container=0;" vertex="1" parent="J2Ls83ueX8J15JTTdsfE-169">
          <mxGeometry x="445" y="145" width="100" height="40" as="geometry" />
        </mxCell>
        <mxCell id="J2Ls83ueX8J15JTTdsfE-180" style="edgeStyle=orthogonalEdgeStyle;rounded=0;orthogonalLoop=1;jettySize=auto;html=1;entryX=0.5;entryY=0;entryDx=0;entryDy=0;strokeWidth=3;endSize=10;exitX=0.5;exitY=1;exitDx=0;exitDy=0;" edge="1" parent="1" source="J2Ls83ueX8J15JTTdsfE-170" target="J2Ls83ueX8J15JTTdsfE-108">
          <mxGeometry relative="1" as="geometry">
            <mxPoint x="2466" y="2323.54" as="sourcePoint" />
            <mxPoint x="2088" y="3476.54" as="targetPoint" />
            <Array as="points">
              <mxPoint x="1984" y="2720" />
              <mxPoint x="1650" y="2720" />
            </Array>
          </mxGeometry>
        </mxCell>
        <mxCell id="J2Ls83ueX8J15JTTdsfE-181" value="" style="group" vertex="1" connectable="0" parent="1">
          <mxGeometry x="1255" y="630" width="399" height="184.99999999999994" as="geometry" />
        </mxCell>
        <mxCell id="J2Ls83ueX8J15JTTdsfE-182" value="Clients&lt;br&gt;repository - Interface" style="text;strokeColor=none;fillColor=none;html=1;fontSize=35;fontStyle=1;verticalAlign=middle;align=center;strokeWidth=3;container=0;" vertex="1" parent="J2Ls83ueX8J15JTTdsfE-181">
          <mxGeometry x="90.25" y="79.00199999999995" width="199.5" height="26.999999999999993" as="geometry" />
        </mxCell>
        <mxCell id="J2Ls83ueX8J15JTTdsfE-183" value="" style="swimlane;startSize=0;container=0;strokeWidth=3;" vertex="1" parent="J2Ls83ueX8J15JTTdsfE-181">
          <mxGeometry width="399" height="184.99999999999994" as="geometry" />
        </mxCell>
        <mxCell id="J2Ls83ueX8J15JTTdsfE-184" style="edgeStyle=orthogonalEdgeStyle;rounded=0;orthogonalLoop=1;jettySize=auto;html=1;startSize=6;strokeWidth=3;endSize=10;exitX=0.5;exitY=1;exitDx=0;exitDy=0;entryX=0.5;entryY=0;entryDx=0;entryDy=0;" edge="1" parent="1" source="J2Ls83ueX8J15JTTdsfE-183" target="J2Ls83ueX8J15JTTdsfE-149">
          <mxGeometry relative="1" as="geometry">
            <mxPoint x="770" y="2024" as="targetPoint" />
            <mxPoint x="814" y="895" as="sourcePoint" />
            <Array as="points">
              <mxPoint x="1455" y="1020" />
              <mxPoint x="1065" y="1020" />
            </Array>
          </mxGeometry>
        </mxCell>
        <mxCell id="J2Ls83ueX8J15JTTdsfE-185" style="edgeStyle=orthogonalEdgeStyle;rounded=0;orthogonalLoop=1;jettySize=auto;html=1;startSize=6;strokeWidth=3;endSize=10;exitX=0.5;exitY=1;exitDx=0;exitDy=0;entryX=0.5;entryY=0;entryDx=0;entryDy=0;" edge="1" parent="1" source="J2Ls83ueX8J15JTTdsfE-183" target="J2Ls83ueX8J15JTTdsfE-152">
          <mxGeometry relative="1" as="geometry">
            <mxPoint x="1780" y="1256" as="targetPoint" />
            <mxPoint x="2170" y="700" as="sourcePoint" />
            <Array as="points">
              <mxPoint x="1455" y="1010" />
              <mxPoint x="1390" y="1010" />
              <mxPoint x="1390" y="1367" />
            </Array>
          </mxGeometry>
        </mxCell>
        <mxCell id="J2Ls83ueX8J15JTTdsfE-186" style="edgeStyle=orthogonalEdgeStyle;rounded=0;orthogonalLoop=1;jettySize=auto;html=1;startSize=6;strokeWidth=3;endSize=10;exitX=0.5;exitY=1;exitDx=0;exitDy=0;entryX=0.5;entryY=0;entryDx=0;entryDy=0;" edge="1" parent="1" source="J2Ls83ueX8J15JTTdsfE-183" target="J2Ls83ueX8J15JTTdsfE-159">
          <mxGeometry relative="1" as="geometry">
            <mxPoint x="1120" y="1506" as="targetPoint" />
            <mxPoint x="1510" y="950" as="sourcePoint" />
            <Array as="points">
              <mxPoint x="1455" y="1005" />
              <mxPoint x="1720" y="1005" />
              <mxPoint x="1720" y="1367" />
            </Array>
          </mxGeometry>
        </mxCell>
        <mxCell id="J2Ls83ueX8J15JTTdsfE-187" style="edgeStyle=orthogonalEdgeStyle;rounded=0;orthogonalLoop=1;jettySize=auto;html=1;startSize=6;strokeWidth=3;endSize=10;exitX=1;exitY=0.5;exitDx=0;exitDy=0;entryX=0.5;entryY=0;entryDx=0;entryDy=0;" edge="1" parent="1" source="J2Ls83ueX8J15JTTdsfE-183" target="J2Ls83ueX8J15JTTdsfE-171">
          <mxGeometry relative="1" as="geometry">
            <mxPoint x="2170.1400000000003" y="1406" as="targetPoint" />
            <mxPoint x="2559.1400000000003" y="850" as="sourcePoint" />
            <Array as="points">
              <mxPoint x="2560" y="723" />
              <mxPoint x="2560" y="1820" />
              <mxPoint x="1819" y="1820" />
            </Array>
          </mxGeometry>
        </mxCell>
        <mxCell id="J2Ls83ueX8J15JTTdsfE-188" style="edgeStyle=orthogonalEdgeStyle;rounded=0;orthogonalLoop=1;jettySize=auto;html=1;startSize=6;strokeWidth=3;endSize=10;exitX=1;exitY=0.5;exitDx=0;exitDy=0;entryX=0.5;entryY=0;entryDx=0;entryDy=0;" edge="1" parent="1" source="J2Ls83ueX8J15JTTdsfE-183" target="J2Ls83ueX8J15JTTdsfE-174">
          <mxGeometry relative="1" as="geometry">
            <mxPoint x="1965" y="1918" as="targetPoint" />
            <mxPoint x="1800" y="633" as="sourcePoint" />
            <Array as="points">
              <mxPoint x="2560" y="723" />
              <mxPoint x="2560" y="1820" />
              <mxPoint x="2149" y="1820" />
            </Array>
          </mxGeometry>
        </mxCell>
        <mxCell id="J2Ls83ueX8J15JTTdsfE-190" style="edgeStyle=orthogonalEdgeStyle;rounded=0;orthogonalLoop=1;jettySize=auto;html=1;entryX=0.5;entryY=0;entryDx=0;entryDy=0;strokeWidth=3;endSize=10;exitX=0.5;exitY=1;exitDx=0;exitDy=0;" edge="1" parent="1" source="r7-e_KJdZXoIzfTeK7qY-70" target="4gGjTpzzvBJ2QWFjTk4x-105">
          <mxGeometry relative="1" as="geometry">
            <mxPoint x="3634" y="2290" as="sourcePoint" />
            <mxPoint x="3300" y="2801" as="targetPoint" />
            <Array as="points">
              <mxPoint x="3521" y="2676" />
              <mxPoint x="3560" y="2676" />
            </Array>
          </mxGeometry>
        </mxCell>
        <mxCell id="J2Ls83ueX8J15JTTdsfE-192" value="" style="swimlane;startSize=0;container=0;strokeWidth=3;" vertex="1" parent="1">
          <mxGeometry x="4665" y="2830" width="280" height="274.07" as="geometry" />
        </mxCell>
        <mxCell id="J2Ls83ueX8J15JTTdsfE-195" value="Import/Export&lt;br style=&quot;font-size: 35px;&quot;&gt;ViewModel" style="text;strokeColor=none;fillColor=none;html=1;fontSize=35;fontStyle=1;verticalAlign=middle;align=center;strokeWidth=3;container=0;" vertex="1" parent="J2Ls83ueX8J15JTTdsfE-192">
          <mxGeometry x="90" y="117.03999999999996" width="100" height="40" as="geometry" />
        </mxCell>
        <mxCell id="J2Ls83ueX8J15JTTdsfE-193" value="" style="swimlane;startSize=0;container=0;strokeWidth=3;" vertex="1" parent="1">
          <mxGeometry x="4660" y="3184.9199999999996" width="290" height="274.07" as="geometry" />
        </mxCell>
        <mxCell id="J2Ls83ueX8J15JTTdsfE-194" value="Import/Export&lt;br style=&quot;border-color: var(--border-color);&quot;&gt;Fragment" style="text;strokeColor=none;fillColor=none;html=1;fontSize=35;fontStyle=1;verticalAlign=middle;align=center;strokeWidth=3;container=0;" vertex="1" parent="J2Ls83ueX8J15JTTdsfE-193">
          <mxGeometry x="90" y="117.0300000000002" width="100" height="40" as="geometry" />
        </mxCell>
        <mxCell id="J2Ls83ueX8J15JTTdsfE-196" style="edgeStyle=orthogonalEdgeStyle;rounded=0;orthogonalLoop=1;jettySize=auto;html=1;entryX=0.5;entryY=0;entryDx=0;entryDy=0;strokeWidth=3;endSize=10;exitX=0.5;exitY=1;exitDx=0;exitDy=0;jumpSize=11;" edge="1" source="J2Ls83ueX8J15JTTdsfE-192" target="J2Ls83ueX8J15JTTdsfE-193" parent="1">
          <mxGeometry relative="1" as="geometry">
            <mxPoint x="3899" y="3135.074074074074" as="sourcePoint" />
            <mxPoint x="3899" y="3215.925925925926" as="targetPoint" />
          </mxGeometry>
        </mxCell>
        <mxCell id="J2Ls83ueX8J15JTTdsfE-207" style="edgeStyle=orthogonalEdgeStyle;rounded=0;orthogonalLoop=1;jettySize=auto;html=1;entryX=0.5;entryY=0;entryDx=0;entryDy=0;strokeWidth=3;endSize=10;exitX=0.5;exitY=1;exitDx=0;exitDy=0;" edge="1" parent="1" source="J2Ls83ueX8J15JTTdsfE-201" target="J2Ls83ueX8J15JTTdsfE-192">
          <mxGeometry relative="1" as="geometry">
            <mxPoint x="5000" y="1930" as="sourcePoint" />
            <mxPoint x="5039" y="2553" as="targetPoint" />
            <Array as="points">
              <mxPoint x="4785" y="2379" />
              <mxPoint x="4805" y="2379" />
            </Array>
          </mxGeometry>
        </mxCell>
        <mxCell id="J2Ls83ueX8J15JTTdsfE-210" style="edgeStyle=orthogonalEdgeStyle;rounded=0;jumpSize=11;orthogonalLoop=1;jettySize=auto;html=1;entryX=0.5;entryY=1;entryDx=0;entryDy=0;strokeWidth=3;fontSize=28;fontColor=#000000000;exitX=1;exitY=0.5;exitDx=0;exitDy=0;" edge="1" parent="1" source="4gGjTpzzvBJ2QWFjTk4x-163" target="J2Ls83ueX8J15JTTdsfE-193">
          <mxGeometry relative="1" as="geometry">
            <mxPoint x="1468.5" y="3801" as="sourcePoint" />
            <mxPoint x="3719.5" y="3610" as="targetPoint" />
          </mxGeometry>
        </mxCell>
        <mxCell id="J2Ls83ueX8J15JTTdsfE-197" value="" style="group" vertex="1" connectable="0" parent="1">
          <mxGeometry x="4310" y="1340" width="1321" height="330" as="geometry" />
        </mxCell>
        <mxCell id="J2Ls83ueX8J15JTTdsfE-198" value="" style="rounded=0;whiteSpace=wrap;html=1;glass=0;strokeColor=default;dashed=1;dashPattern=8 8;strokeWidth=2;shadow=0;" vertex="1" parent="J2Ls83ueX8J15JTTdsfE-197">
          <mxGeometry x="-19" y="30" width="999" height="329" as="geometry" />
        </mxCell>
        <mxCell id="J2Ls83ueX8J15JTTdsfE-199" value="" style="ellipse;whiteSpace=wrap;html=1;aspect=fixed;strokeWidth=3;fontSize=48;container=0;fillColor=#ffe6cc;strokeColor=#d79b00;" vertex="1" parent="J2Ls83ueX8J15JTTdsfE-197">
          <mxGeometry x="-20" y="30" width="330" height="330" as="geometry" />
        </mxCell>
        <mxCell id="J2Ls83ueX8J15JTTdsfE-200" value="Restart&lt;br&gt;App" style="text;strokeColor=none;fillColor=none;html=1;fontSize=35;fontStyle=1;verticalAlign=middle;align=center;strokeWidth=3;fontColor=#000000000;container=0;" vertex="1" parent="J2Ls83ueX8J15JTTdsfE-197">
          <mxGeometry x="95" y="175" width="100" height="40" as="geometry" />
        </mxCell>
        <mxCell id="J2Ls83ueX8J15JTTdsfE-201" value="" style="ellipse;whiteSpace=wrap;html=1;aspect=fixed;strokeWidth=3;fontSize=48;container=0;fillColor=#ffe6cc;strokeColor=#d79b00;" vertex="1" parent="J2Ls83ueX8J15JTTdsfE-197">
          <mxGeometry x="310" y="30" width="330" height="330" as="geometry" />
        </mxCell>
        <mxCell id="J2Ls83ueX8J15JTTdsfE-202" value="Import" style="text;strokeColor=none;fillColor=none;html=1;fontSize=35;fontStyle=1;verticalAlign=middle;align=center;strokeWidth=3;fontColor=#000000000;container=0;" vertex="1" parent="J2Ls83ueX8J15JTTdsfE-197">
          <mxGeometry x="425" y="175" width="100" height="40" as="geometry" />
        </mxCell>
        <mxCell id="J2Ls83ueX8J15JTTdsfE-203" value="" style="ellipse;whiteSpace=wrap;html=1;aspect=fixed;strokeWidth=3;fontSize=48;container=0;fillColor=#ffe6cc;strokeColor=#d79b00;" vertex="1" parent="J2Ls83ueX8J15JTTdsfE-197">
          <mxGeometry x="640" y="30" width="330" height="330" as="geometry" />
        </mxCell>
        <mxCell id="J2Ls83ueX8J15JTTdsfE-204" value="Export" style="text;strokeColor=none;fillColor=none;html=1;fontSize=35;fontStyle=1;verticalAlign=middle;align=center;strokeWidth=3;fontColor=#000000000;container=0;" vertex="1" parent="J2Ls83ueX8J15JTTdsfE-197">
          <mxGeometry x="755" y="175" width="100" height="40" as="geometry" />
        </mxCell>
        <mxCell id="J2Ls83ueX8J15JTTdsfE-221" style="edgeStyle=orthogonalEdgeStyle;rounded=0;jumpSize=11;orthogonalLoop=1;jettySize=auto;html=1;entryX=0.5;entryY=1;entryDx=0;entryDy=0;strokeWidth=3;fontSize=28;fontColor=#000000000;exitX=1;exitY=0.5;exitDx=0;exitDy=0;" edge="1" parent="1" source="4gGjTpzzvBJ2QWFjTk4x-163" target="4gGjTpzzvBJ2QWFjTk4x-113">
          <mxGeometry relative="1" as="geometry">
            <mxPoint x="1600" y="3861.01" as="sourcePoint" />
            <mxPoint x="5096" y="3650.01" as="targetPoint" />
          </mxGeometry>
        </mxCell>
        <mxCell id="J2Ls83ueX8J15JTTdsfE-222" value="" style="swimlane;startSize=0;container=0;fontSize=35;strokeWidth=3;" vertex="1" parent="1">
          <mxGeometry x="6130" y="2829.99" width="290" height="274.07" as="geometry" />
        </mxCell>
        <mxCell id="J2Ls83ueX8J15JTTdsfE-223" value="EditProcedure&lt;br style=&quot;font-size: 35px;&quot;&gt;ViewModel" style="text;strokeColor=none;fillColor=none;html=1;fontSize=35;fontStyle=1;verticalAlign=middle;align=center;strokeWidth=3;container=0;" vertex="1" parent="J2Ls83ueX8J15JTTdsfE-222">
          <mxGeometry x="95" y="117.02999999999975" width="100" height="40" as="geometry" />
        </mxCell>
        <mxCell id="J2Ls83ueX8J15JTTdsfE-224" style="edgeStyle=orthogonalEdgeStyle;rounded=0;orthogonalLoop=1;jettySize=auto;html=1;entryX=1;entryY=0.5;entryDx=0;entryDy=0;strokeWidth=3;endSize=10;exitX=0.5;exitY=1;exitDx=0;exitDy=0;" edge="1" parent="1" source="J2Ls83ueX8J15JTTdsfE-222" target="4gGjTpzzvBJ2QWFjTk4x-113">
          <mxGeometry relative="1" as="geometry">
            <mxPoint x="6200" y="3184.86" as="sourcePoint" />
            <mxPoint x="6200" y="3265.86" as="targetPoint" />
            <Array as="points">
              <mxPoint x="6275" y="3322" />
            </Array>
          </mxGeometry>
        </mxCell>
        <mxCell id="J2Ls83ueX8J15JTTdsfE-225" value="" style="group;fillColor=none;" vertex="1" connectable="0" parent="1">
          <mxGeometry x="5330" y="1910" width="1321" height="330" as="geometry" />
        </mxCell>
        <mxCell id="J2Ls83ueX8J15JTTdsfE-226" value="" style="rounded=0;whiteSpace=wrap;html=1;glass=0;strokeColor=default;dashed=1;dashPattern=8 8;strokeWidth=2;shadow=0;" vertex="1" parent="J2Ls83ueX8J15JTTdsfE-225">
          <mxGeometry x="-19" y="30" width="999" height="329" as="geometry" />
        </mxCell>
        <mxCell id="J2Ls83ueX8J15JTTdsfE-227" value="" style="ellipse;whiteSpace=wrap;html=1;aspect=fixed;strokeWidth=3;fontSize=48;container=0;fillColor=#e1d5e7;strokeColor=#9673a6;" vertex="1" parent="J2Ls83ueX8J15JTTdsfE-225">
          <mxGeometry x="-20" y="30" width="330" height="330" as="geometry" />
        </mxCell>
        <mxCell id="J2Ls83ueX8J15JTTdsfE-228" value="Insert&lt;br&gt;Procedure" style="text;strokeColor=none;fillColor=none;html=1;fontSize=35;fontStyle=1;verticalAlign=middle;align=center;strokeWidth=3;fontColor=#000000000;container=0;" vertex="1" parent="J2Ls83ueX8J15JTTdsfE-225">
          <mxGeometry x="95" y="175" width="100" height="40" as="geometry" />
        </mxCell>
        <mxCell id="J2Ls83ueX8J15JTTdsfE-229" value="" style="ellipse;whiteSpace=wrap;html=1;aspect=fixed;strokeWidth=3;fontSize=48;container=0;fillColor=#e1d5e7;strokeColor=#9673a6;" vertex="1" parent="J2Ls83ueX8J15JTTdsfE-225">
          <mxGeometry x="310" y="30" width="330" height="330" as="geometry" />
        </mxCell>
        <mxCell id="J2Ls83ueX8J15JTTdsfE-230" value="Delete&lt;br&gt;Procedure" style="text;strokeColor=none;fillColor=none;html=1;fontSize=35;fontStyle=1;verticalAlign=middle;align=center;strokeWidth=3;fontColor=#000000000;container=0;" vertex="1" parent="J2Ls83ueX8J15JTTdsfE-225">
          <mxGeometry x="425" y="175" width="100" height="40" as="geometry" />
        </mxCell>
        <mxCell id="J2Ls83ueX8J15JTTdsfE-231" value="" style="ellipse;whiteSpace=wrap;html=1;aspect=fixed;strokeWidth=3;fontSize=48;container=0;fillColor=#e1d5e7;strokeColor=#9673a6;" vertex="1" parent="J2Ls83ueX8J15JTTdsfE-225">
          <mxGeometry x="640" y="30" width="330" height="330" as="geometry" />
        </mxCell>
        <mxCell id="J2Ls83ueX8J15JTTdsfE-232" value="Search&lt;br&gt;Procedure" style="text;strokeColor=none;fillColor=none;html=1;fontSize=35;fontStyle=1;verticalAlign=middle;align=center;strokeWidth=3;fontColor=#000000000;container=0;" vertex="1" parent="J2Ls83ueX8J15JTTdsfE-225">
          <mxGeometry x="755" y="175" width="100" height="40" as="geometry" />
        </mxCell>
        <mxCell id="J2Ls83ueX8J15JTTdsfE-233" style="edgeStyle=orthogonalEdgeStyle;rounded=0;orthogonalLoop=1;jettySize=auto;html=1;entryX=0.5;entryY=0;entryDx=0;entryDy=0;strokeWidth=3;endSize=10;exitX=0.5;exitY=1;exitDx=0;exitDy=0;" edge="1" parent="1" source="J2Ls83ueX8J15JTTdsfE-229" target="4gGjTpzzvBJ2QWFjTk4x-110">
          <mxGeometry relative="1" as="geometry">
            <mxPoint x="5540" y="2490" as="sourcePoint" />
            <mxPoint x="5560" y="3620" as="targetPoint" />
            <Array as="points">
              <mxPoint x="5805" y="2560" />
              <mxPoint x="5850" y="2560" />
            </Array>
          </mxGeometry>
        </mxCell>
      </root>
    </mxGraphModel>
  </diagram>
</mxfile>
